<svg width="1082" height="828" viewBox="0 0 1082 828" fill="none" xmlns="http://www.w3.org/2000/svg">
<g clip-path="url(#clip0_5236_135)">
<path d="M541.113 0.5C658.724 0.5 765.186 11.0758 842.232 28.167C880.759 36.7135 911.903 46.883 933.404 58.1592C944.154 63.7975 952.469 69.7 958.09 75.7939C963.709 81.8853 966.613 88.1394 966.613 94.5C966.613 100.861 963.709 107.115 958.09 113.206C952.469 119.3 944.154 125.203 933.404 130.841C911.903 142.117 880.759 152.287 842.232 160.833C765.186 177.924 658.724 188.5 541.113 188.5C423.501 188.5 317.039 177.924 239.994 160.833C201.467 152.287 170.322 142.117 148.822 130.841C138.071 125.203 129.757 119.3 124.135 113.206C118.516 107.115 115.613 100.861 115.613 94.5C115.613 88.1394 118.516 81.8853 124.135 75.7939C129.757 69.7 138.071 63.7975 148.822 58.1592C170.322 46.883 201.467 36.7135 239.994 28.167C317.039 11.0758 423.501 0.5 541.113 0.5Z" stroke="url(#paint0_linear_5236_135)"/>
<path opacity="0.7" d="M893.378 116.452C894.024 117.27 894.587 118.092 895.068 118.919L894.636 119.17C895.144 120.044 895.554 120.92 895.867 121.797L896.335 121.629C896.676 122.586 896.905 123.548 897.021 124.516L896.527 124.575C896.584 125.049 896.613 125.524 896.613 126C896.613 126.476 896.584 126.95 896.527 127.424L897.021 127.482C896.905 128.45 896.676 129.412 896.335 130.369L895.867 130.203C895.554 131.08 895.144 131.955 894.636 132.829L895.068 133.08C894.587 133.907 894.024 134.73 893.379 135.547L892.988 135.237C892.416 135.961 891.778 136.683 891.074 137.402L891.429 137.751C890.756 138.438 890.026 139.122 889.238 139.802L888.912 139.425C888.193 140.046 887.423 140.664 886.606 141.279L886.906 141.678C886.143 142.252 885.339 142.823 884.495 143.392L884.217 142.978C883.41 143.521 882.565 144.062 881.683 144.601L881.942 145.023C881.127 145.52 880.282 146.015 879.406 146.507L879.163 146.074C878.31 146.553 877.428 147.03 876.516 147.504L876.745 147.944C875.89 148.389 875.011 148.832 874.106 149.271L873.889 148.824C873.014 149.25 872.114 149.673 871.192 150.095L871.399 150.549C870.505 150.957 869.589 151.361 868.652 151.766L868.455 151.31C867.571 151.691 866.668 152.07 865.745 152.448L865.934 152.909C865.008 153.288 864.064 153.666 863.101 154.041L862.92 153.576C862.026 153.925 861.115 154.271 860.188 154.616L860.362 155.083C859.442 155.425 858.507 155.766 857.556 156.104L857.389 155.636C856.449 155.971 855.494 156.303 854.524 156.635L854.685 157.105C853.774 157.417 852.849 157.726 851.911 158.034L851.756 157.562C850.82 157.869 849.871 158.175 848.909 158.479L849.059 158.955C848.106 159.257 847.141 159.556 846.163 159.854L846.019 159.378C845.096 159.659 844.161 159.94 843.216 160.219L843.357 160.695C842.41 160.974 841.453 161.253 840.484 161.529L840.348 161.051C839.382 161.326 838.404 161.6 837.415 161.873L837.547 162.354C836.616 162.61 835.676 162.865 834.726 163.119L834.598 162.639C833.649 162.893 832.691 163.145 831.723 163.396L831.848 163.878C830.879 164.13 829.9 164.38 828.912 164.629L828.791 164.146C827.841 164.386 826.881 164.624 825.912 164.861L826.031 165.346C825.081 165.578 824.123 165.809 823.157 166.039L823.041 165.555C822.076 165.785 821.103 166.013 820.121 166.24L820.234 166.727C819.256 166.953 818.27 167.178 817.276 167.402L817.167 166.916C816.221 167.129 815.267 167.342 814.306 167.553L814.412 168.04C813.451 168.251 812.481 168.461 811.505 168.67L811.402 168.183C810.427 168.391 809.444 168.599 808.455 168.806L808.557 169.293C807.583 169.496 806.601 169.698 805.614 169.899L805.515 169.411C804.559 169.606 803.597 169.8 802.629 169.992L802.726 170.479C801.757 170.672 800.782 170.863 799.801 171.054L799.706 170.565C798.726 170.755 797.74 170.945 796.747 171.133L796.839 171.621C795.863 171.806 794.881 171.99 793.893 172.173L793.803 171.683C792.842 171.86 791.876 172.037 790.904 172.213L790.992 172.703C790.019 172.879 789.041 173.053 788.057 173.227L787.971 172.736C786.988 172.91 786 173.082 785.006 173.253L785.09 173.744C784.107 173.914 783.119 174.082 782.125 174.249L782.043 173.758C781.08 173.92 780.111 174.082 779.138 174.242L779.218 174.734C778.244 174.895 777.265 175.054 776.282 175.213L776.203 174.72C775.219 174.878 774.231 175.036 773.239 175.192L773.316 175.686C772.323 175.842 771.325 175.998 770.323 176.152L770.246 175.658C769.281 175.807 768.312 175.955 767.338 176.102L767.411 176.595C766.437 176.741 765.459 176.886 764.476 177.031L764.405 176.538C763.423 176.683 762.436 176.827 761.446 176.97L761.516 177.463C760.525 177.606 759.529 177.747 758.53 177.888L758.46 177.395C757.48 177.533 756.495 177.67 755.506 177.807L755.574 178.3C754.601 178.434 753.624 178.567 752.644 178.699L752.578 178.206C751.598 178.338 750.614 178.469 749.626 178.6L749.691 179.094C748.702 179.224 747.71 179.355 746.714 179.483L746.652 178.988C745.656 179.117 744.657 179.244 743.654 179.371L743.715 179.866C742.742 179.989 741.764 180.11 740.784 180.231L740.723 179.737C739.746 179.858 738.765 179.978 737.781 180.097L737.839 180.591C736.854 180.71 735.866 180.828 734.874 180.945L734.817 180.45C733.825 180.567 732.83 180.684 731.832 180.799L731.889 181.294C730.895 181.409 729.898 181.524 728.897 181.637L728.841 181.141C727.866 181.251 726.889 181.36 725.908 181.469L725.961 181.965C724.98 182.073 723.996 182.18 723.008 182.287L722.955 181.791C721.968 181.898 720.978 182.004 719.985 182.108L720.036 182.604C719.043 182.708 718.046 182.813 717.046 182.916L716.995 182.421C716.003 182.523 715.006 182.625 714.007 182.726L714.057 183.222C713.079 183.32 712.099 183.419 711.116 183.516L711.067 183.019C710.084 183.115 709.097 183.211 708.109 183.306L708.156 183.802C707.167 183.897 706.175 183.992 705.181 184.085L705.135 183.589C704.141 183.682 703.144 183.775 702.145 183.866L702.189 184.362C701.193 184.454 700.195 184.544 699.195 184.634L699.151 184.138C698.172 184.225 697.19 184.312 696.205 184.398L696.248 184.896C695.264 184.982 694.277 185.066 693.287 185.15L693.245 184.653C692.256 184.738 691.265 184.822 690.271 184.904L690.311 185.4C689.317 185.483 688.32 185.565 687.321 185.646L687.281 185.149C686.282 185.23 685.28 185.31 684.277 185.39L684.315 185.887C683.334 185.964 682.351 186.04 681.366 186.116L681.328 185.619C680.344 185.695 679.357 185.77 678.368 185.844L678.404 186.341C677.414 186.415 676.423 186.488 675.429 186.561L675.393 186.063C674.399 186.136 673.404 186.208 672.406 186.278L672.442 186.777C671.443 186.848 670.442 186.916 669.439 186.985L669.406 186.488C668.418 186.556 667.428 186.624 666.436 186.69L666.468 187.188C665.483 187.254 664.496 187.319 663.507 187.384L663.476 186.886C662.487 186.95 661.497 187.013 660.504 187.076L660.536 187.575C659.542 187.638 658.547 187.699 657.55 187.76L657.52 187.262C656.523 187.323 655.524 187.384 654.524 187.443L654.553 187.94C653.557 188 652.558 188.059 651.558 188.116L651.531 187.618C650.547 187.675 649.56 187.731 648.573 187.786L648.599 188.284C647.611 188.339 646.621 188.393 645.629 188.446L645.604 187.949C644.612 188.003 643.619 188.055 642.623 188.106L642.649 188.604C641.653 188.656 640.656 188.708 639.657 188.759L639.633 188.26C638.634 188.31 637.633 188.36 636.631 188.408L636.655 188.907C635.665 188.955 634.673 189.001 633.68 189.048L633.658 188.55C632.671 188.596 631.683 188.642 630.693 188.687L630.714 189.185C629.724 189.229 628.731 189.273 627.738 189.316L627.717 188.817C626.724 188.86 625.728 188.903 624.732 188.944L624.751 189.442C623.754 189.484 622.756 189.525 621.755 189.564L621.737 189.066C620.737 189.106 619.736 189.145 618.734 189.184L618.752 189.683C617.766 189.72 616.778 189.756 615.788 189.792L615.772 189.294C614.783 189.33 613.792 189.365 612.8 189.399L612.817 189.897C611.825 189.932 610.831 189.966 609.836 189.999L609.821 189.501C608.826 189.534 607.829 189.565 606.831 189.597L606.846 190.096C605.848 190.127 604.849 190.157 603.848 190.187L603.834 189.688C602.838 189.718 601.84 189.746 600.841 189.774L600.855 190.273C599.867 190.301 598.878 190.328 597.887 190.354L597.874 189.855C596.884 189.882 595.893 189.907 594.9 189.932L594.911 190.43C593.918 190.454 592.924 190.478 591.928 190.501L591.917 190.003C590.922 190.026 589.925 190.048 588.927 190.069L588.937 190.568C587.938 190.59 586.939 190.61 585.938 190.63L585.928 190.132C584.934 190.152 583.938 190.17 582.942 190.188L582.95 190.687C581.961 190.705 580.97 190.723 579.979 190.739L579.972 190.24C578.981 190.257 577.988 190.272 576.995 190.287L577.001 190.786C576.007 190.801 575.012 190.815 574.016 190.828L574.01 190.33C573.014 190.343 572.017 190.356 571.019 190.368L571.024 190.867C570.026 190.879 569.026 190.889 568.026 190.899L568.021 190.4C567.027 190.411 566.032 190.42 565.036 190.429L565.039 190.927C564.05 190.935 563.059 190.945 562.068 190.952L562.064 190.452C561.072 190.459 560.08 190.466 559.086 190.472L559.087 190.97C558.093 190.975 557.098 190.979 556.102 190.983L556.101 190.485C555.105 190.489 554.108 190.493 553.111 190.495L553.112 190.995C552.113 190.997 551.114 190.997 550.114 190.998V190.499C549.614 190.499 549.113 190.5 548.613 190.5C548.112 190.5 547.612 190.499 547.113 190.499L547.112 190.998C546.111 190.997 545.112 190.997 544.114 190.995L544.116 190.495C543.118 190.493 542.12 190.489 541.124 190.485L541.122 190.983C540.126 190.979 539.131 190.975 538.137 190.97L538.14 190.472C537.146 190.466 536.153 190.459 535.161 190.452L535.158 190.952H535.141C534.155 190.945 533.169 190.935 532.185 190.927L532.19 190.429C531.194 190.42 530.198 190.412 529.204 190.401L529.2 190.899C528.199 190.889 527.199 190.879 526.201 190.867L526.206 190.368C525.208 190.356 524.211 190.343 523.215 190.33L523.208 190.828C522.212 190.815 521.218 190.801 520.224 190.786L520.231 190.287C519.237 190.272 518.245 190.257 517.254 190.24L517.245 190.739C516.254 190.723 515.264 190.705 514.275 190.687L514.284 190.188C513.287 190.17 512.291 190.152 511.297 190.132L511.287 190.63C510.287 190.61 509.287 190.59 508.288 190.568L508.299 190.069C507.301 190.048 506.304 190.026 505.308 190.003L505.296 190.501C504.3 190.478 503.306 190.454 502.313 190.43L502.326 189.932C501.333 189.907 500.341 189.882 499.351 189.855L499.337 190.354C498.347 190.328 497.357 190.301 496.37 190.273L496.384 189.774C495.385 189.746 494.387 189.718 493.391 189.688L493.376 190.187C492.376 190.157 491.376 190.127 490.378 190.096L490.394 189.597C489.396 189.565 488.399 189.534 487.405 189.501L487.389 189.999C486.394 189.966 485.4 189.932 484.408 189.897L484.425 189.399C483.433 189.365 482.443 189.33 481.454 189.294L481.436 189.792C480.446 189.756 479.458 189.72 478.472 189.683H478.473L478.492 189.184C477.489 189.145 476.488 189.106 475.489 189.066L475.469 189.564C474.469 189.525 473.47 189.484 472.473 189.442L472.494 188.944C471.497 188.903 470.502 188.86 469.508 188.817L469.487 189.316C468.493 189.273 467.501 189.229 466.51 189.185L466.533 188.687C465.543 188.642 464.554 188.596 463.568 188.55L463.544 189.048C462.551 189.001 461.56 188.955 460.57 188.907L460.594 188.408C459.592 188.36 458.591 188.31 457.592 188.26L457.568 188.759C456.569 188.708 455.571 188.656 454.576 188.604L454.602 188.106C453.607 188.055 452.613 188.003 451.621 187.949L451.595 188.446C450.603 188.393 449.613 188.339 448.624 188.284L448.653 187.786C447.665 187.731 446.679 187.675 445.695 187.618L445.666 188.116C444.666 188.059 443.668 188 442.671 187.94L442.702 187.443C441.701 187.384 440.702 187.323 439.705 187.262L439.674 187.76C438.677 187.699 437.682 187.638 436.689 187.575H436.69L436.721 187.076C435.728 187.013 434.738 186.95 433.749 186.886L433.716 187.384C432.727 187.319 431.741 187.253 430.756 187.188L430.789 186.69C429.798 186.624 428.807 186.556 427.82 186.488L427.786 186.985C426.782 186.916 425.781 186.848 424.783 186.777H424.784L424.82 186.278C423.822 186.208 422.825 186.136 421.831 186.063L421.795 186.561C420.802 186.488 419.81 186.415 418.821 186.341L418.858 185.844C417.869 185.77 416.881 185.695 415.897 185.619L415.859 186.116C414.873 186.04 413.89 185.964 412.91 185.887L412.949 185.39C411.945 185.31 410.944 185.23 409.945 185.149L409.904 185.646C408.905 185.565 407.908 185.483 406.913 185.4L406.954 184.904C405.96 184.822 404.969 184.738 403.98 184.653L403.937 185.15C402.947 185.066 401.96 184.982 400.976 184.896L401.019 184.398C400.035 184.312 399.054 184.225 398.075 184.138L398.03 184.634C397.029 184.544 396.031 184.454 395.036 184.362L395.08 183.866C394.081 183.775 393.084 183.682 392.09 183.589L392.043 184.085C391.049 183.992 390.057 183.897 389.068 183.802L389.116 183.306C388.127 183.211 387.141 183.115 386.159 183.019L386.11 183.516C385.126 183.419 384.145 183.32 383.167 183.222L383.217 182.726C382.218 182.625 381.223 182.523 380.23 182.421L380.178 182.916C379.178 182.813 378.182 182.708 377.188 182.604L377.241 182.108C376.247 182.004 375.257 181.898 374.27 181.791L374.216 182.287C373.229 182.18 372.244 182.073 371.263 181.965L371.318 181.469C370.337 181.36 369.359 181.251 368.384 181.141L368.328 181.637C367.327 181.524 366.329 181.409 365.335 181.294L365.393 180.799C364.395 180.684 363.4 180.567 362.409 180.45L362.35 180.945C361.358 180.828 360.37 180.71 359.385 180.591L359.445 180.097C358.46 179.978 357.479 179.858 356.501 179.737L356.441 180.231C355.46 180.11 354.482 179.989 353.508 179.866L353.572 179.371C352.569 179.244 351.569 179.117 350.574 178.988L350.51 179.483C349.514 179.355 348.522 179.224 347.534 179.094L347.599 178.6C346.611 178.469 345.628 178.338 344.648 178.206L344.58 178.699C343.6 178.567 342.623 178.434 341.65 178.3L341.718 177.807C340.73 177.67 339.745 177.533 338.764 177.395L338.695 177.888C337.695 177.747 336.7 177.606 335.708 177.463L335.78 176.97C334.789 176.827 333.803 176.683 332.821 176.538L332.748 177.031C331.766 176.886 330.787 176.741 329.813 176.595L329.887 176.101C328.913 175.954 327.944 175.807 326.979 175.658L326.902 176.152C325.899 175.998 324.902 175.842 323.909 175.686L323.987 175.192C322.994 175.036 322.006 174.878 321.023 174.72L320.943 175.213C319.959 175.054 318.98 174.895 318.006 174.734L318.087 174.242C317.114 174.082 316.146 173.92 315.182 173.758L315.099 174.249C314.106 174.082 313.117 173.914 312.134 173.744L312.219 173.253C311.226 173.082 310.237 172.91 309.254 172.736L309.167 173.227C308.184 173.053 307.206 172.879 306.233 172.703L306.322 172.213C305.35 172.037 304.383 171.86 303.422 171.683L303.331 172.173C302.343 171.99 301.361 171.806 300.385 171.621L300.478 171.133C299.485 170.945 298.498 170.756 297.518 170.565L297.423 171.054C296.442 170.863 295.467 170.672 294.498 170.479L294.595 169.992C293.627 169.8 292.666 169.606 291.71 169.411L291.611 169.899C290.623 169.698 289.642 169.496 288.667 169.293L288.77 168.806C287.781 168.599 286.799 168.391 285.824 168.183L285.718 168.67C284.742 168.461 283.774 168.251 282.812 168.04L282.919 167.553C281.958 167.342 281.005 167.129 280.058 166.916L279.949 167.402C278.955 167.178 277.969 166.953 276.991 166.727L277.104 166.24C276.123 166.013 275.149 165.785 274.184 165.555L274.068 166.039C273.102 165.809 272.143 165.578 271.194 165.346L271.313 164.861C270.345 164.624 269.385 164.386 268.434 164.146L268.312 164.629C267.324 164.38 266.346 164.129 265.377 163.878L265.502 163.396C264.535 163.145 263.576 162.893 262.627 162.639L262.498 163.119C261.549 162.865 260.608 162.61 259.677 162.354L259.81 161.873C258.822 161.6 257.845 161.326 256.878 161.051L256.741 161.529C255.772 161.253 254.814 160.974 253.868 160.695L254.009 160.219C253.064 159.94 252.129 159.659 251.206 159.378L251.061 159.854C250.083 159.556 249.118 159.257 248.165 158.955L248.317 158.48C247.355 158.176 246.405 157.869 245.469 157.562L245.314 158.034C244.376 157.726 243.451 157.417 242.539 157.105L242.702 156.635C241.731 156.303 240.776 155.971 239.836 155.636L239.669 156.104C238.718 155.766 237.783 155.425 236.863 155.083L237.037 154.616C236.111 154.271 235.2 153.925 234.305 153.576L234.123 154.041C233.16 153.666 232.216 153.288 231.29 152.909L231.48 152.448C230.557 152.07 229.654 151.691 228.77 151.31L228.573 151.766C227.636 151.362 226.72 150.957 225.827 150.549L226.034 150.095C225.111 149.673 224.213 149.25 223.337 148.824L223.12 149.271C222.215 148.831 221.335 148.389 220.48 147.944L220.71 147.504C219.799 147.03 218.915 146.553 218.062 146.074L217.819 146.507C216.942 146.015 216.097 145.52 215.283 145.023L215.542 144.601C214.66 144.062 213.815 143.522 213.008 142.979L212.729 143.392C211.885 142.823 211.081 142.252 210.319 141.678L210.62 141.279C209.802 140.664 209.033 140.046 208.313 139.425L207.987 139.803C207.199 139.123 206.468 138.438 205.795 137.751L206.152 137.403C205.448 136.684 204.81 135.962 204.239 135.238L203.846 135.547C203.201 134.729 202.637 133.907 202.157 133.08L202.589 132.83C202.082 131.956 201.671 131.08 201.359 130.203L200.889 130.37C200.548 129.413 200.32 128.451 200.203 127.483L200.699 127.425C200.642 126.951 200.613 126.476 200.613 126C200.613 125.524 200.642 125.05 200.699 124.576L200.203 124.517C200.32 123.549 200.548 122.587 200.889 121.63L201.359 121.797C201.671 120.92 202.082 120.045 202.589 119.171L202.157 118.919C202.637 118.092 203.2 117.269 203.845 116.452L204.238 116.763C204.809 116.039 205.448 115.317 206.152 114.598L205.795 114.248C206.367 113.664 206.979 113.082 207.634 112.504L207.987 112.197L208.313 112.575C209.033 111.954 209.802 111.336 210.62 110.721L210.319 110.321C210.916 109.872 211.537 109.424 212.184 108.979L212.729 108.607L213.008 109.022C213.815 108.479 214.66 107.938 215.542 107.399L215.283 106.976C216.097 106.479 216.943 105.984 217.819 105.492L218.062 105.926C218.915 105.447 219.798 104.97 220.709 104.496L220.48 104.055C221.334 103.61 222.214 103.167 223.119 102.728L223.336 103.176C224.212 102.75 225.111 102.327 226.034 101.905L225.826 101.45C226.719 101.042 227.636 100.638 228.573 100.233L228.77 100.69C229.654 100.309 230.557 99.9295 231.48 99.5518L231.29 99.0898C232.216 98.7108 233.16 98.3331 234.123 97.958L234.305 98.4238C235.2 98.0755 236.111 97.7287 237.037 97.3838L236.863 96.916C237.782 96.5738 238.718 96.2333 239.668 95.8945L239.836 96.3643C240.776 96.0295 241.731 95.6966 242.702 95.3652L242.539 94.8936C243.451 94.5823 244.375 94.273 245.313 93.9648L245.469 94.4385C246.405 94.1309 247.355 93.8249 248.317 93.5205L248.165 93.0439C249.118 92.7425 250.083 92.4428 251.061 92.1445L251.206 92.6221C252.129 92.3405 253.064 92.06 254.009 91.7812L253.868 91.3037C254.814 91.0245 255.772 90.746 256.741 90.4697L256.877 90.9492C257.844 90.6736 258.822 90.3996 259.81 90.127L259.677 89.6455C260.608 89.3887 261.549 89.1341 262.498 88.8799L262.627 89.3613C263.576 89.1074 264.535 88.8548 265.502 88.6035L265.376 88.1211C266.345 87.8695 267.324 87.6191 268.312 87.3701L268.434 87.8535C269.385 87.6139 270.345 87.3758 271.313 87.1387L271.194 86.6533C272.143 86.4207 273.102 86.1901 274.068 85.96L274.184 86.4453C275.149 86.2154 276.123 85.9871 277.104 85.7598L276.991 85.2725C277.969 85.0458 278.955 84.8208 279.949 84.5967L280.058 85.084C281.005 84.8706 281.958 84.6584 282.919 84.4473L282.812 83.959C283.774 83.7476 284.743 83.5381 285.719 83.3291L285.824 83.8174C286.799 83.6086 287.781 83.4008 288.77 83.1943L288.667 82.7061C289.642 82.5027 290.623 82.3007 291.611 82.0996L291.71 82.5889C292.666 82.3944 293.628 82.2001 294.596 82.0078L294.498 81.5195C295.467 81.3271 296.442 81.1355 297.423 80.9453L297.519 81.4346C298.499 81.2445 299.485 81.055 300.478 80.8672L300.385 80.3779C301.361 80.1932 302.343 80.0088 303.331 79.8262L303.422 80.3174C304.383 80.1398 305.35 79.9626 306.322 79.7871L306.233 79.2959C307.206 79.1203 308.184 78.946 309.167 78.7725L309.254 79.2637C310.237 79.0903 311.226 78.9183 312.219 78.7471L312.134 78.2549C313.117 78.0854 314.106 77.9174 315.099 77.75L315.182 78.2422C316.146 78.0799 317.114 77.9181 318.087 77.7578L318.006 77.2646C318.98 77.1042 319.959 76.9446 320.943 76.7861L321.023 77.2803C322.006 77.1219 322.994 76.964 323.987 76.8076L323.909 76.3135C324.902 76.1571 325.899 76.001 326.902 75.8467L326.903 75.8477L326.979 76.3418C327.944 76.1932 328.913 76.0451 329.887 75.8984L329.813 75.4043C330.787 75.2576 331.766 75.1126 332.748 74.9678L332.821 75.4619C333.803 75.3172 334.789 75.173 335.78 75.0303L335.708 74.5361C336.7 74.3933 337.695 74.2522 338.695 74.1113L338.765 74.6055C339.746 74.4673 340.731 74.3297 341.719 74.1934L341.651 73.6992C342.623 73.5651 343.6 73.4321 344.58 73.2998L344.648 73.7939C345.628 73.6617 346.611 73.5307 347.599 73.4004L347.534 72.9053C348.522 72.7748 349.514 72.6442 350.51 72.5156L350.574 73.0117C351.569 72.8832 352.569 72.7555 353.572 72.6289L353.509 72.1328C354.483 72.0099 355.46 71.8887 356.441 71.7676L356.502 72.2627C357.48 72.142 358.46 72.0222 359.445 71.9033L359.385 71.4082C360.37 71.2892 361.358 71.1709 362.35 71.0537L362.409 71.5498C363.4 71.4327 364.395 71.3165 365.393 71.2012L365.335 70.7051C366.329 70.5902 367.327 70.4754 368.328 70.3623L368.384 70.8594C369.359 70.7493 370.337 70.6396 371.318 70.5312L371.263 70.0342C372.244 69.9258 373.229 69.8186 374.216 69.7119L374.27 70.209C375.257 70.1024 376.247 69.9965 377.241 69.8916L377.188 69.3955C378.182 69.2906 379.178 69.1861 380.178 69.083L380.23 69.5791C381.223 69.4767 382.219 69.3751 383.218 69.2744L383.167 68.7773C384.145 68.6788 385.125 68.5802 386.109 68.4834L386.11 68.4844L386.159 68.9814C387.142 68.8846 388.128 68.7895 389.117 68.6943L389.069 68.1973C390.058 68.1021 391.049 68.0075 392.043 67.9141L392.09 68.4111C393.084 68.3177 394.081 68.2254 395.08 68.1338L395.036 67.6367C396.031 67.5454 397.029 67.4548 398.03 67.3652L398.075 67.8623C399.054 67.7747 400.036 67.6875 401.02 67.6016L400.976 67.1035C401.96 67.0175 402.947 66.933 403.937 66.8486L403.98 67.3467C404.969 67.2624 405.96 67.1783 406.954 67.0957L406.913 66.5986C407.908 66.516 408.905 66.4345 409.904 66.3535L409.945 66.8506C410.944 66.7697 411.945 66.6896 412.949 66.6104L412.91 66.1123C413.89 66.0349 414.873 65.9586 415.859 65.8828L415.897 66.3809C416.881 66.3051 417.869 66.2303 418.858 66.1562L418.821 65.6582C419.81 65.5841 420.802 65.5109 421.795 65.4385L421.832 65.9365C422.826 65.8641 423.822 65.7924 424.82 65.7217L424.784 65.2227L424.783 65.2217C425.781 65.1509 426.782 65.0828 427.786 65.0137L427.82 65.5117C428.807 65.4436 429.798 65.376 430.789 65.3096L430.756 64.8115C431.741 64.7455 432.728 64.6796 433.717 64.6152L433.749 65.1143C434.738 65.0499 435.728 64.9866 436.721 64.9238L436.69 64.4248L436.689 64.4238C437.682 64.3611 438.677 64.3004 439.674 64.2393L439.705 64.7383C440.702 64.6772 441.701 64.6161 442.702 64.5566L442.671 64.0586C443.668 63.9994 444.666 63.9404 445.666 63.8828L445.695 64.3818C446.679 64.3252 447.665 64.269 448.653 64.2139L448.625 63.7148C449.613 63.6597 450.603 63.6062 451.595 63.5527L451.621 64.0508C452.613 63.9973 453.607 63.9454 454.602 63.8936L454.576 63.3945C455.571 63.3426 456.569 63.2905 457.568 63.2402L457.592 63.7402C458.591 63.69 459.592 63.6405 460.594 63.5918L460.57 63.0918C461.56 63.0437 462.551 62.9976 463.544 62.9512L463.568 63.4502C464.554 63.404 465.543 63.3581 466.533 63.3135L466.51 62.8145C467.501 62.7698 468.493 62.7257 469.487 62.6826L469.508 63.1826C470.502 63.1396 471.497 63.0971 472.494 63.0557L472.473 62.5566C473.47 62.5152 474.469 62.4744 475.469 62.4346L475.489 62.9336C476.488 62.8938 477.489 62.8546 478.492 62.8164L478.473 62.3174L478.472 62.3164C479.458 62.2788 480.446 62.2431 481.436 62.207L481.453 62.7061C482.442 62.67 483.433 62.635 484.425 62.6006L484.408 62.1016C485.4 62.0671 486.393 62.0329 487.388 62L487.405 62.499C488.399 62.4661 489.396 62.4346 490.394 62.4033L490.378 61.9033C491.376 61.872 492.376 61.8422 493.376 61.8125L493.391 62.3115C494.387 62.2819 495.385 62.2536 496.384 62.2256L496.37 61.7256C497.357 61.6979 498.347 61.6707 499.337 61.6445L499.351 62.1445C500.341 62.1184 501.333 62.0929 502.326 62.0684L502.313 61.5693C503.306 61.5447 504.3 61.5211 505.296 61.498L505.308 61.9971C506.303 61.9741 507.3 61.9521 508.298 61.9307L508.287 61.4307C509.286 61.4092 510.286 61.389 511.286 61.3691L511.297 61.8682C512.291 61.8484 513.287 61.8297 514.284 61.8115L514.275 61.3125C515.264 61.2945 516.254 61.2763 517.245 61.2598L517.253 61.7598C518.244 61.7433 519.237 61.7278 520.231 61.7129L520.223 61.2129C521.217 61.1979 522.212 61.1843 523.208 61.1709L523.215 61.6699C524.211 61.6565 525.208 61.6437 526.206 61.6318L526.201 61.1318C527.199 61.12 528.198 61.1099 529.199 61.0996L529.204 61.5996C530.198 61.5894 531.193 61.5799 532.189 61.5713L532.185 61.0723C533.174 61.0637 534.165 61.0539 535.157 61.0469L535.158 61.0479L535.161 61.5479C536.153 61.5408 537.145 61.5338 538.139 61.5283L538.137 61.0293C539.131 61.0238 540.126 61.0195 541.122 61.0156L541.124 61.5146C542.12 61.5107 543.117 61.5072 544.115 61.5049L544.114 61.0049L544.113 61.0039C545.111 61.0015 546.111 61.0018 547.112 61.001V61.501C547.612 61.5006 548.112 61.5 548.613 61.5C549.113 61.5 549.613 61.5006 550.113 61.501V61.001C551.113 61.0018 552.112 61.0016 553.111 61.0039V61.0049L553.11 61.5049C554.108 61.5072 555.105 61.5107 556.101 61.5146L556.102 61.0156C557.098 61.0195 558.093 61.0238 559.087 61.0293L559.085 61.5283C560.079 61.5338 561.072 61.5408 562.064 61.5479L562.068 61.0479C563.059 61.0549 564.05 61.0637 565.039 61.0723L565.036 61.5713C566.032 61.5799 567.027 61.5885 568.021 61.5986L568.025 61.0996C569.026 61.1099 570.025 61.12 571.024 61.1318L571.019 61.6318C572.017 61.6437 573.014 61.6565 574.01 61.6699L574.016 61.1709C575.012 61.1843 576.007 61.198 577 61.2129L576.995 61.7129C577.988 61.7278 578.98 61.7433 579.971 61.7598L579.979 61.2598C580.97 61.2763 581.961 61.2945 582.95 61.3125L582.942 61.8115C583.938 61.8297 584.934 61.8484 585.928 61.8682L585.937 61.3691C586.938 61.389 587.938 61.4092 588.936 61.4307L588.926 61.9307C589.924 61.9521 590.922 61.974 591.917 61.9971L591.928 61.498C592.924 61.5211 593.918 61.5447 594.911 61.5693L594.9 62.0684C595.893 62.0929 596.884 62.1184 597.874 62.1445L597.887 61.6445C598.878 61.6707 599.867 61.6979 600.855 61.7256L600.841 62.2256C601.84 62.2536 602.838 62.2819 603.834 62.3115L603.848 61.8125C604.849 61.8422 605.848 61.872 606.846 61.9033L606.831 62.4033C607.829 62.4346 608.826 62.4661 609.821 62.499L609.835 62C610.831 62.0329 611.824 62.0671 612.817 62.1016L612.8 62.6006C613.792 62.635 614.782 62.67 615.771 62.7061L615.788 62.207C616.778 62.2431 617.766 62.2788 618.752 62.3164V62.3174L618.734 62.8164C619.736 62.8546 620.737 62.8938 621.737 62.9336L621.755 62.4346C622.756 62.4744 623.754 62.5152 624.751 62.5566L624.732 63.0557C625.728 63.0971 626.724 63.1396 627.717 63.1826L627.738 62.6826C628.732 62.7257 629.724 62.7698 630.714 62.8145L630.693 63.3135C631.683 63.3581 632.671 63.404 633.658 63.4502L633.68 62.9512C634.673 62.9976 635.665 63.0437 636.655 63.0918L636.631 63.5918C637.633 63.6405 638.634 63.69 639.633 63.7402L639.657 63.2402C640.656 63.2905 641.653 63.3426 642.649 63.3945L642.623 63.8936C643.619 63.9454 644.612 63.9973 645.604 64.0508L645.629 63.5527C646.621 63.6063 647.612 63.6597 648.6 63.7148L648.573 64.2139C649.56 64.269 650.547 64.3252 651.531 64.3818L651.558 63.8828C652.558 63.9404 653.557 63.9994 654.553 64.0586L654.524 64.5566C655.524 64.6161 656.523 64.6772 657.52 64.7383L657.55 64.2393C658.547 64.3004 659.542 64.3611 660.536 64.4238L660.504 64.9238C661.497 64.9866 662.487 65.0499 663.476 65.1143L663.508 64.6152C664.497 64.6796 665.484 64.7455 666.468 64.8115L666.436 65.3096C667.428 65.376 668.418 65.4436 669.406 65.5117L669.439 65.0137C670.442 65.0828 671.443 65.1509 672.442 65.2217L672.406 65.7217C673.404 65.7925 674.4 65.8641 675.394 65.9365L675.429 65.4385C676.423 65.5109 677.414 65.5841 678.404 65.6582L678.368 66.1562C679.357 66.2303 680.344 66.3051 681.328 66.3809L681.366 65.8828C682.351 65.9586 683.334 66.0349 684.315 66.1123L684.277 66.6104C685.28 66.6896 686.282 66.7697 687.281 66.8506L687.321 66.3535C688.32 66.4345 689.317 66.516 690.311 66.5986L690.271 67.0957C691.265 67.1783 692.256 67.2624 693.245 67.3467L693.287 66.8486C694.277 66.933 695.264 67.0175 696.248 67.1035L696.206 67.6016C697.19 67.6875 698.172 67.7747 699.151 67.8623L699.195 67.3652C700.195 67.4548 701.193 67.5454 702.189 67.6367L702.145 68.1338C703.144 68.2254 704.141 68.3177 705.135 68.4111L705.181 67.9141C706.176 68.0075 707.167 68.1021 708.157 68.1973L708.11 68.6943C709.098 68.7894 710.084 68.8846 711.067 68.9814L711.116 68.4844C712.099 68.5812 713.079 68.6788 714.057 68.7773L714.008 69.2744C715.007 69.3751 716.003 69.4767 716.995 69.5791L717.046 69.083C718.046 69.1861 719.043 69.2906 720.036 69.3955L719.985 69.8916C720.978 69.9965 721.968 70.1024 722.955 70.209L723.008 69.7119C723.996 69.8186 724.98 69.9258 725.961 70.0342L725.908 70.5312C726.889 70.6396 727.866 70.7493 728.841 70.8594L728.897 70.3623C729.898 70.4754 730.895 70.5902 731.889 70.7051L731.832 71.2012C732.83 71.3165 733.825 71.4327 734.817 71.5498L734.874 71.0537C735.866 71.1709 736.854 71.2892 737.839 71.4082L737.781 71.9033C738.765 72.0223 739.746 72.142 740.724 72.2627L740.784 71.7676C741.765 71.8887 742.742 72.0099 743.716 72.1328L743.654 72.6289C744.657 72.7555 745.656 72.8832 746.652 73.0117L746.714 72.5156C747.71 72.6442 748.702 72.7748 749.691 72.9053L749.626 73.4004C750.614 73.5307 751.598 73.6617 752.578 73.7939L752.644 73.2998C753.625 73.4321 754.602 73.5651 755.575 73.6992L755.507 74.1934C756.496 74.3297 757.481 74.4673 758.461 74.6055L758.53 74.1113C759.529 74.2522 760.525 74.3933 761.516 74.5361L761.446 75.0303C762.436 75.173 763.423 75.3172 764.405 75.4619L764.476 74.9678C765.459 75.1126 766.437 75.2576 767.411 75.4043L767.338 75.8994C768.312 76.0461 769.281 76.1932 770.246 76.3418L770.323 75.8477C771.325 76.002 772.323 76.1571 773.316 76.3135L773.239 76.8076C774.231 76.9639 775.219 77.1219 776.203 77.2803L776.282 76.7861C777.265 76.9446 778.244 77.1042 779.218 77.2646L779.138 77.7578C780.111 77.9181 781.08 78.0799 782.043 78.2422L782.125 77.75C783.119 77.9174 784.107 78.0854 785.09 78.2549L785.006 78.7471C786 78.9183 786.988 79.0903 787.971 79.2637L788.057 78.7725C789.041 78.946 790.019 79.1203 790.992 79.2959L790.904 79.7871C791.876 79.9626 792.842 80.1398 793.803 80.3174L793.893 79.8262C794.881 80.0088 795.863 80.1932 796.839 80.3779L796.747 80.8672C797.74 81.0551 798.727 81.2445 799.707 81.4346L799.801 80.9453C800.782 81.1355 801.757 81.3271 802.726 81.5195L802.63 82.0078C803.598 82.2001 804.56 82.3944 805.515 82.5889L805.614 82.0996C806.601 82.3007 807.583 82.5027 808.557 82.7061L808.455 83.1943C809.444 83.4008 810.427 83.6086 811.402 83.8174L811.506 83.3291C812.482 83.5381 813.451 83.7477 814.412 83.959L814.306 84.4473C815.267 84.6584 816.221 84.8706 817.167 85.084L817.276 84.5967C818.27 84.8208 819.256 85.0458 820.234 85.2725L820.121 85.7598C821.103 85.9871 822.076 86.2154 823.041 86.4453L823.157 85.96C824.123 86.1901 825.081 86.4207 826.031 86.6533L825.912 87.1387C826.881 87.3758 827.84 87.6139 828.791 87.8535L828.912 87.3701C829.9 87.619 830.878 87.8695 831.847 88.1211L831.723 88.6035C832.691 88.8548 833.649 89.1074 834.598 89.3613L834.726 88.8799C835.676 89.1341 836.616 89.3887 837.547 89.6455L837.415 90.127C838.403 90.3996 839.381 90.6737 840.347 90.9492L840.484 90.4697C841.453 90.746 842.41 91.0245 843.357 91.3037L843.216 91.7812C844.161 92.06 845.096 92.3405 846.019 92.6221L846.163 92.1445C847.141 92.4428 848.106 92.7425 849.059 93.0439L848.909 93.5195C849.871 93.824 850.82 94.1309 851.756 94.4385L851.911 93.9648C852.848 94.2731 853.773 94.5822 854.685 94.8936L854.524 95.3652C855.494 95.6966 856.449 96.0295 857.389 96.3643L857.555 95.8945C858.506 96.2334 859.442 96.5737 860.362 96.916L860.188 97.3838C861.115 97.7287 862.026 98.0755 862.92 98.4238L863.101 97.958C864.064 98.3331 865.008 98.7108 865.934 99.0898L865.745 99.5518C866.668 99.9295 867.571 100.309 868.455 100.69L868.652 100.233C869.588 100.637 870.504 101.042 871.398 101.45L871.192 101.905C872.114 102.327 873.013 102.75 873.888 103.176L874.105 102.728C875.01 103.168 875.89 103.61 876.745 104.055L876.515 104.496C877.427 104.97 878.31 105.447 879.163 105.926L879.406 105.492C880.282 105.984 881.127 106.479 881.942 106.976L881.683 107.399C882.565 107.938 883.41 108.478 884.217 109.021L884.495 108.607C885.339 109.176 886.143 109.747 886.906 110.321L886.606 110.721C887.423 111.336 888.193 111.954 888.912 112.575L889.238 112.196C890.026 112.876 890.756 113.561 891.429 114.248L891.074 114.597C891.778 115.316 892.415 116.038 892.987 116.762L893.378 116.452Z" stroke="url(#paint1_linear_5236_135)" stroke-opacity="0.98" stroke-dasharray="3 3"/>
<path d="M885.833 542.368C886.252 543.293 886.614 544.222 886.918 545.155L886.444 545.311C886.749 546.246 886.996 547.185 887.182 548.128L887.671 548.031C887.866 549.018 887.996 550.009 888.062 551.004L887.565 551.037C887.597 551.524 887.613 552.011 887.613 552.5C887.613 552.988 887.597 553.476 887.565 553.962L888.062 553.994C887.996 554.989 887.866 555.98 887.671 556.967L887.182 556.871C886.996 557.814 886.75 558.753 886.445 559.689L886.918 559.844C886.614 560.777 886.253 561.706 885.834 562.631L885.379 562.425C884.981 563.304 884.531 564.18 884.029 565.053L884.46 565.301C883.978 566.14 883.448 566.975 882.872 567.806L882.463 567.522C881.906 568.327 881.305 569.129 880.66 569.927L881.047 570.24C880.445 570.985 879.806 571.728 879.13 572.466L878.762 572.128C878.096 572.855 877.393 573.58 876.655 574.301L877.003 574.658C876.319 575.327 875.604 575.992 874.86 576.654L874.528 576.281C873.789 576.939 873.02 577.594 872.221 578.245L872.536 578.631C871.791 579.239 871.021 579.844 870.226 580.446L869.925 580.049C869.141 580.642 868.332 581.233 867.498 581.821L867.786 582.229C866.988 582.792 866.169 583.355 865.327 583.913L865.05 583.496C864.239 584.034 863.407 584.57 862.555 585.103L862.819 585.525C861.97 586.056 861.101 586.584 860.213 587.109L859.96 586.682C859.134 587.171 858.289 587.658 857.428 588.143L857.671 588.575C856.807 589.062 855.927 589.547 855.03 590.029L854.794 589.591C853.925 590.057 853.041 590.522 852.14 590.984L852.367 591.425C851.5 591.87 850.62 592.315 849.725 592.756L849.505 592.308C848.613 592.747 847.706 593.184 846.786 593.619L846.996 594.068C846.105 594.49 845.2 594.909 844.282 595.326L844.077 594.874C843.189 595.277 842.289 595.679 841.377 596.078L841.578 596.535C840.664 596.935 839.737 597.332 838.799 597.729L838.606 597.271C837.695 597.656 836.771 598.039 835.837 598.42L836.026 598.88C835.122 599.249 834.207 599.617 833.283 599.982L833.1 599.521C832.177 599.885 831.243 600.248 830.299 600.609L830.477 601.075C829.54 601.434 828.593 601.79 827.636 602.145L827.462 601.678C826.551 602.016 825.631 602.352 824.703 602.687L824.871 603.154C823.941 603.489 823.001 603.822 822.052 604.153L821.889 603.685C820.942 604.016 819.986 604.345 819.021 604.673L819.181 605.144C818.249 605.46 817.309 605.776 816.361 606.089L816.204 605.616C815.273 605.924 814.334 606.231 813.387 606.535L813.539 607.01C812.591 607.315 811.635 607.618 810.671 607.92L810.523 607.444C809.562 607.745 808.593 608.044 807.617 608.342L807.761 608.819C806.829 609.104 805.89 609.386 804.944 609.667L804.802 609.189C803.857 609.47 802.905 609.749 801.947 610.027L802.084 610.507C801.125 610.785 800.158 611.061 799.185 611.336L799.05 610.856C798.086 611.129 797.114 611.4 796.137 611.67L796.269 612.15C795.326 612.41 794.377 612.669 793.422 612.926L793.293 612.444C792.339 612.701 791.379 612.957 790.413 613.211L790.539 613.692C789.572 613.947 788.599 614.201 787.62 614.452L787.496 613.969C786.525 614.218 785.549 614.466 784.566 614.713L784.686 615.196C783.736 615.435 782.781 615.672 781.821 615.907L781.703 615.423C780.743 615.658 779.778 615.892 778.808 616.125L778.923 616.61C777.952 616.843 776.975 617.074 775.994 617.304L775.881 616.818C774.9 617.048 773.914 617.276 772.922 617.503L773.034 617.99C772.078 618.209 771.118 618.426 770.154 618.642L770.045 618.155C769.082 618.371 768.114 618.585 767.142 618.798L767.248 619.284C766.275 619.497 765.297 619.709 764.315 619.92L764.211 619.434C763.23 619.644 762.243 619.853 761.252 620.061L761.354 620.548C760.384 620.751 759.409 620.954 758.43 621.154L758.33 620.666C757.366 620.864 756.397 621.061 755.424 621.256L755.522 621.744C754.548 621.94 753.57 622.133 752.588 622.326L752.494 621.838C751.512 622.031 750.527 622.221 749.537 622.411L749.63 622.901C748.643 623.091 747.652 623.28 746.657 623.467L746.565 622.977C745.6 623.158 744.632 623.338 743.66 623.517L743.749 624.007C742.776 624.186 741.799 624.363 740.819 624.539L740.731 624.05C739.751 624.226 738.768 624.401 737.781 624.575L737.866 625.065C736.878 625.239 735.886 625.412 734.891 625.583L734.807 625.093C733.825 625.262 732.839 625.43 731.85 625.597L731.932 626.088C730.96 626.252 729.986 626.415 729.007 626.576L728.927 626.084C727.949 626.245 726.967 626.406 725.983 626.564L726.062 627.058C725.077 627.217 724.088 627.374 723.096 627.53L723.019 627.038C722.028 627.195 721.033 627.35 720.035 627.504L720.11 627.996C719.128 628.148 718.144 628.298 717.156 628.447L717.081 627.955C716.106 628.102 715.127 628.249 714.146 628.394L714.218 628.886C713.236 629.031 712.251 629.176 711.262 629.318L711.192 628.825C710.204 628.968 709.213 629.109 708.219 629.249L708.288 629.743C707.294 629.884 706.297 630.022 705.296 630.16L705.229 629.667C704.246 629.803 703.26 629.937 702.271 630.07L702.336 630.563C701.357 630.696 700.376 630.827 699.391 630.957L699.327 630.463C698.342 630.593 697.355 630.721 696.366 630.849L696.429 631.344C695.439 631.471 694.446 631.597 693.451 631.722L693.389 631.228C692.394 631.353 691.396 631.477 690.396 631.6L690.455 632.093C689.467 632.214 688.477 632.334 687.484 632.453L687.425 631.96C686.444 632.077 685.461 632.193 684.475 632.309L684.533 632.804C683.546 632.919 682.558 633.034 681.567 633.147L681.511 632.651C680.521 632.764 679.527 632.877 678.532 632.987L678.586 633.481C677.59 633.592 676.592 633.702 675.591 633.811L675.538 633.316C674.545 633.424 673.548 633.53 672.549 633.636L672.601 634.132C671.619 634.236 670.634 634.339 669.647 634.44L669.597 633.944C668.611 634.046 667.622 634.147 666.631 634.246L666.68 634.741C665.689 634.841 664.695 634.939 663.7 635.036L663.652 634.541C662.657 634.638 661.659 634.734 660.66 634.829L660.705 635.325C659.705 635.42 658.703 635.515 657.699 635.607L657.654 635.11C656.67 635.201 655.683 635.291 654.695 635.38L654.739 635.876C653.752 635.965 652.763 636.052 651.772 636.139L651.729 635.643C650.738 635.729 649.746 635.815 648.751 635.899L648.792 636.396C647.797 636.48 646.8 636.563 645.801 636.646L645.761 636.148C644.762 636.231 643.762 636.312 642.759 636.392L642.798 636.888C641.804 636.967 640.808 637.045 639.81 637.122L639.773 636.626C638.787 636.702 637.798 636.778 636.808 636.852L636.844 637.349C635.853 637.423 634.861 637.494 633.867 637.566L633.831 637.07C632.838 637.142 631.842 637.212 630.845 637.282L630.878 637.779C629.881 637.849 628.881 637.918 627.88 637.985L627.847 637.488C626.846 637.556 625.844 637.622 624.839 637.688L624.87 638.186C623.882 638.25 622.891 638.313 621.899 638.375L621.869 637.878C620.879 637.94 619.888 638.001 618.896 638.061L618.924 638.559C617.931 638.619 616.937 638.678 615.941 638.736L615.912 638.237C614.917 638.295 613.919 638.353 612.92 638.408L612.947 638.905C611.947 638.961 610.946 639.016 609.943 639.069L609.917 638.572C608.918 638.626 607.917 638.677 606.914 638.729L606.939 639.228C605.95 639.278 604.96 639.327 603.968 639.375L603.945 638.877C602.953 638.925 601.96 638.973 600.965 639.02L600.988 639.517C599.993 639.563 598.996 639.609 597.998 639.653L597.978 639.155C596.981 639.2 595.981 639.243 594.981 639.285L595.001 639.783C594.001 639.825 592.998 639.865 591.995 639.905L591.976 639.408C590.979 639.448 589.981 639.487 588.981 639.524L588.998 640.022C588.008 640.06 587.015 640.097 586.022 640.132L586.005 639.633C585.012 639.668 584.018 639.702 583.023 639.735L583.038 640.232C582.042 640.266 581.045 640.298 580.046 640.329L580.032 639.831C579.034 639.862 578.034 639.892 577.034 639.921L577.046 640.42C576.045 640.449 575.043 640.475 574.039 640.502L574.027 640.004C573.031 640.03 572.033 640.057 571.035 640.081L571.046 640.578C570.054 640.602 569.061 640.627 568.067 640.649L568.056 640.15C567.062 640.173 566.067 640.194 565.071 640.214L565.08 640.712C564.084 640.732 563.086 640.752 562.086 640.77L562.078 640.271C561.08 640.289 560.08 640.306 559.079 640.322L559.086 640.821C558.085 640.837 557.083 640.85 556.079 640.864L556.074 640.366C555.077 640.38 554.08 640.393 553.081 640.404L553.086 640.902C552.094 640.914 551.1 640.926 550.106 640.936L550.101 640.436C549.107 640.445 548.111 640.454 547.115 640.461L547.118 640.959C546.121 640.966 545.122 640.972 544.123 640.978L544.121 640.48C543.123 640.486 542.123 640.49 541.122 640.493L541.124 640.993C540.123 640.996 539.121 640.996 538.118 640.997V640.499C537.616 640.5 537.115 640.5 536.613 640.5C536.111 640.5 535.609 640.5 535.108 640.499V640.997C534.105 640.996 533.102 640.996 532.101 640.993L532.103 640.493C531.102 640.49 530.102 640.486 529.104 640.48L529.102 640.978C528.103 640.972 527.105 640.966 526.108 640.959L526.111 640.461C525.114 640.454 524.119 640.445 523.124 640.436L523.12 640.936H523.025C522.062 640.926 521.099 640.914 520.138 640.902L520.144 640.404C519.146 640.393 518.149 640.38 517.153 640.366L517.146 640.864C516.142 640.85 515.14 640.837 514.138 640.821L514.146 640.322C513.145 640.306 512.145 640.289 511.147 640.271L511.138 640.77C510.139 640.752 509.141 640.732 508.144 640.712L508.155 640.214C507.158 640.194 506.163 640.173 505.169 640.15L505.158 640.649C504.164 640.627 503.171 640.602 502.179 640.578L502.191 640.081C501.192 640.057 500.195 640.031 499.199 640.005L499.185 640.502C498.181 640.475 497.179 640.449 496.178 640.42L496.193 639.921C495.192 639.892 494.192 639.862 493.194 639.831L493.178 640.329C492.179 640.298 491.182 640.266 490.186 640.232L490.203 639.735C489.207 639.702 488.213 639.668 487.22 639.633L487.203 640.132C486.209 640.097 485.217 640.06 484.226 640.022L484.245 639.524C483.246 639.487 482.247 639.448 481.249 639.408L481.23 639.905C480.226 639.865 479.224 639.825 478.223 639.783L478.245 639.285C477.244 639.243 476.245 639.2 475.247 639.155L475.226 639.653C474.228 639.609 473.232 639.563 472.237 639.517L472.26 639.02C471.266 638.973 470.272 638.925 469.281 638.877L469.256 639.375C468.265 639.327 467.274 639.278 466.286 639.228L466.311 638.729C465.308 638.677 464.307 638.626 463.308 638.572L463.282 639.069C462.279 639.016 461.277 638.961 460.278 638.905L460.306 638.408C459.307 638.352 458.309 638.295 457.313 638.237L457.284 638.736C456.287 638.678 455.293 638.619 454.3 638.559L454.329 638.061C453.337 638.001 452.346 637.94 451.357 637.878L451.326 638.375C450.333 638.313 449.343 638.25 448.354 638.186L448.386 637.688C447.382 637.622 446.379 637.556 445.378 637.488L445.344 637.985C444.343 637.918 443.344 637.849 442.346 637.779L442.38 637.282C441.383 637.212 440.388 637.142 439.394 637.07L439.358 637.566C438.363 637.494 437.371 637.423 436.38 637.349L436.417 636.852C435.427 636.778 434.439 636.702 433.453 636.626L433.414 637.122C432.416 637.045 431.42 636.967 430.426 636.888L430.466 636.392C429.464 636.312 428.463 636.231 427.464 636.148L427.423 636.646C426.424 636.563 425.427 636.48 424.432 636.396L424.474 635.899C423.479 635.815 422.487 635.729 421.496 635.643L421.453 636.139C420.462 636.052 419.473 635.965 418.486 635.876L418.531 635.38C417.542 635.291 416.556 635.201 415.572 635.11L415.526 635.607C414.521 635.515 413.519 635.42 412.519 635.325L412.566 634.829C411.566 634.734 410.569 634.638 409.574 634.541L409.525 635.036C408.529 634.939 407.536 634.841 406.544 634.741L406.594 634.246C405.603 634.147 404.615 634.046 403.628 633.944L403.577 634.44C402.59 634.339 401.606 634.236 400.623 634.132L400.676 633.636C399.678 633.53 398.681 633.424 397.687 633.316L397.633 633.811C396.632 633.702 395.634 633.592 394.638 633.481L394.694 632.987C393.698 632.877 392.705 632.764 391.714 632.651L391.658 633.147C390.666 633.034 389.678 632.919 388.692 632.804L388.749 632.309C387.764 632.193 386.781 632.077 385.8 631.96L385.741 632.453C384.747 632.334 383.757 632.214 382.769 632.093L382.829 631.6C381.829 631.477 380.831 631.353 379.836 631.228L379.774 631.722C378.778 631.597 377.785 631.471 376.795 631.344L376.86 630.849C375.87 630.721 374.883 630.593 373.899 630.463L373.833 630.957C372.848 630.827 371.866 630.696 370.887 630.563L370.954 630.07C369.966 629.937 368.98 629.803 367.996 629.667L367.928 630.16C366.928 630.022 365.93 629.884 364.936 629.743L365.006 629.249C364.012 629.109 363.021 628.968 362.034 628.825L361.962 629.318C360.974 629.176 359.989 629.031 359.006 628.886L359.079 628.394C358.098 628.249 357.119 628.102 356.143 627.955L356.069 628.447C355.081 628.298 354.096 628.148 353.115 627.996L353.191 627.504C352.193 627.35 351.198 627.195 350.206 627.038L350.128 627.53C349.136 627.374 348.148 627.217 347.162 627.058L347.243 626.564C346.258 626.406 345.276 626.245 344.298 626.084L344.217 626.576C343.239 626.415 342.264 626.252 341.292 626.088L341.375 625.597C340.386 625.43 339.4 625.262 338.418 625.093L338.333 625.583C337.338 625.411 336.346 625.239 335.358 625.065L335.445 624.575C334.458 624.401 333.474 624.226 332.495 624.05L332.406 624.539C331.425 624.363 330.448 624.186 329.475 624.007L329.566 623.517C328.594 623.338 327.625 623.158 326.661 622.977L326.568 623.467C325.572 623.28 324.581 623.091 323.594 622.901L323.688 622.411C322.698 622.221 321.713 622.031 320.732 621.838L320.635 622.326C319.653 622.133 318.676 621.939 317.703 621.744L317.8 621.256C316.827 621.061 315.859 620.864 314.895 620.666L314.794 621.154C313.815 620.954 312.841 620.751 311.87 620.548L311.973 620.061C310.982 619.853 309.996 619.644 309.014 619.434L308.91 619.92C307.927 619.709 306.949 619.497 305.976 619.284L306.083 618.798C305.111 618.585 304.143 618.371 303.18 618.155L303.071 618.642C302.106 618.426 301.146 618.209 300.191 617.99L300.302 617.503C299.311 617.276 298.325 617.048 297.344 616.818L297.23 617.304C296.248 617.074 295.272 616.843 294.301 616.61L294.417 616.125C293.447 615.892 292.482 615.658 291.523 615.423L291.404 615.907C290.443 615.672 289.488 615.435 288.537 615.196L288.66 614.713C287.677 614.466 286.699 614.218 285.728 613.969L285.604 614.452C284.625 614.201 283.652 613.947 282.685 613.692L282.812 613.211C281.846 612.957 280.886 612.701 279.932 612.444L279.802 612.926C278.847 612.669 277.898 612.41 276.954 612.15L277.088 611.67C276.111 611.4 275.139 611.129 274.175 610.856L274.039 611.336C273.066 611.061 272.1 610.785 271.14 610.507L271.279 610.027C270.32 609.749 269.368 609.47 268.423 609.189L268.281 609.667C267.335 609.386 266.395 609.104 265.463 608.819L265.609 608.342C264.632 608.044 263.664 607.745 262.703 607.444L262.553 607.92C261.589 607.618 260.633 607.315 259.685 607.01L259.838 606.535C258.891 606.231 257.952 605.924 257.021 605.616L256.864 606.089C255.915 605.776 254.975 605.46 254.043 605.144L254.204 604.673C253.24 604.345 252.283 604.016 251.336 603.685L251.172 604.153C250.224 603.822 249.284 603.489 248.353 603.154L248.523 602.687C247.594 602.352 246.674 602.016 245.763 601.678L245.589 602.146C244.632 601.79 243.685 601.434 242.747 601.075L242.926 600.609C241.982 600.248 241.048 599.885 240.125 599.521L239.942 599.982C239.017 599.617 238.103 599.249 237.2 598.88L237.388 598.421C236.454 598.04 235.531 597.656 234.62 597.271L234.425 597.729C233.487 597.332 232.561 596.935 231.647 596.535L231.848 596.078C230.936 595.679 230.036 595.277 229.149 594.874L228.943 595.326C228.025 594.909 227.12 594.49 226.228 594.068L226.44 593.619C225.519 593.184 224.612 592.747 223.72 592.308L223.499 592.756C222.604 592.315 221.725 591.87 220.859 591.426L221.085 590.984C220.185 590.522 219.3 590.057 218.431 589.591L218.195 590.029C217.297 589.547 216.417 589.062 215.553 588.575L215.797 588.143C214.936 587.658 214.093 587.171 213.266 586.682L213.011 587.109C212.123 586.584 211.254 586.056 210.406 585.525L210.67 585.103C209.818 584.57 208.986 584.034 208.175 583.496L207.898 583.913C207.056 583.355 206.237 582.793 205.439 582.229L205.727 581.822C204.894 581.234 204.084 580.642 203.3 580.049L202.998 580.446C202.203 579.844 201.434 579.239 200.689 578.632L201.004 578.245C200.206 577.594 199.437 576.939 198.698 576.281L198.366 576.654C197.621 575.992 196.906 575.327 196.221 574.658L196.571 574.302C195.832 573.581 195.129 572.856 194.463 572.129L194.094 572.466C193.418 571.728 192.779 570.985 192.177 570.24L192.566 569.927C191.921 569.129 191.319 568.327 190.762 567.522L190.352 567.806C189.777 566.975 189.247 566.14 188.764 565.302L189.197 565.053C188.695 564.18 188.244 563.305 187.846 562.426L187.391 562.631C186.972 561.706 186.611 560.777 186.306 559.844L186.782 559.689C186.476 558.754 186.229 557.815 186.043 556.872L185.553 556.968C185.358 555.981 185.228 554.99 185.162 553.995L185.661 553.963C185.628 553.476 185.613 552.989 185.613 552.5C185.613 552.012 185.629 551.524 185.661 551.038L185.162 551.005C185.217 550.171 185.317 549.34 185.463 548.512L185.553 548.032L186.043 548.129C186.229 547.186 186.475 546.247 186.781 545.311L186.306 545.155C186.61 544.222 186.971 543.293 187.39 542.368L187.391 542.369L187.846 542.575C188.244 541.696 188.694 540.82 189.197 539.947L188.764 539.698C189.247 538.859 189.776 538.024 190.352 537.193L190.762 537.478C191.319 536.673 191.921 535.871 192.566 535.073L192.177 534.759C192.779 534.014 193.418 533.271 194.094 532.533L194.095 532.534L194.463 532.872C195.129 532.145 195.832 531.42 196.571 530.699L196.221 530.341C196.906 529.672 197.62 529.007 198.365 528.345L198.698 528.719C199.437 528.061 200.206 527.406 201.004 526.755L200.688 526.368C201.433 525.76 202.203 525.155 202.998 524.553L203.3 524.951C204.084 524.358 204.894 523.767 205.727 523.179L205.438 522.771C206.236 522.207 207.056 521.644 207.898 521.086L207.899 521.087L208.175 521.504C208.986 520.966 209.818 520.43 210.67 519.897L210.406 519.474C211.254 518.943 212.123 518.415 213.011 517.89L213.265 518.318C214.092 517.829 214.936 517.342 215.797 516.857L215.553 516.424C216.417 515.937 217.297 515.452 218.195 514.97L218.431 515.409C219.3 514.943 220.185 514.478 221.085 514.016L220.858 513.574C221.724 513.129 222.604 512.684 223.499 512.243L223.72 512.692C224.612 512.253 225.519 511.816 226.44 511.381L226.228 510.931C227.12 510.509 228.025 510.09 228.943 509.673L229.149 510.126C230.036 509.723 230.936 509.321 231.848 508.922L231.647 508.464C232.561 508.064 233.487 507.667 234.425 507.271L234.62 507.729C235.531 507.344 236.454 506.961 237.388 506.58L237.199 506.119C238.103 505.75 239.017 505.382 239.942 505.017L240.125 505.479C241.048 505.115 241.982 504.752 242.926 504.391L242.747 503.924C243.684 503.565 244.631 503.209 245.588 502.854L245.763 503.322C246.674 502.984 247.594 502.648 248.523 502.313L248.353 501.845C249.284 501.51 250.224 501.177 251.172 500.846L251.336 501.315C252.283 500.984 253.24 500.655 254.204 500.327L254.043 499.855C254.975 499.539 255.915 499.223 256.864 498.91L257.021 499.384C257.952 499.076 258.891 498.769 259.838 498.465L259.685 497.989C260.633 497.684 261.589 497.381 262.553 497.079L262.703 497.556C263.664 497.255 264.632 496.956 265.609 496.658L265.463 496.18C266.395 495.896 267.335 495.613 268.281 495.332L268.423 495.811C269.368 495.53 270.32 495.251 271.279 494.973L271.14 494.492C272.1 494.214 273.066 493.938 274.039 493.663L274.175 494.144C275.139 493.871 276.111 493.6 277.088 493.33L276.955 492.849C277.898 492.589 278.847 492.33 279.802 492.073L279.932 492.556C280.886 492.299 281.846 492.043 282.812 491.789L282.685 491.307C283.652 491.052 284.625 490.798 285.604 490.547L285.729 491.031C286.7 490.782 287.677 490.534 288.66 490.287L288.538 489.803C289.488 489.565 290.443 489.327 291.404 489.092L291.523 489.577C292.482 489.342 293.447 489.108 294.417 488.875L294.301 488.389C295.272 488.156 296.249 487.925 297.231 487.695L297.344 488.182C298.325 487.952 299.312 487.724 300.303 487.497L300.191 487.009C301.146 486.79 302.106 486.573 303.071 486.357L303.18 486.845C304.143 486.629 305.111 486.415 306.083 486.202L305.976 485.715C306.949 485.502 307.927 485.29 308.91 485.079L309.014 485.566C309.996 485.356 310.982 485.147 311.973 484.939L311.87 484.451C312.841 484.248 313.815 484.045 314.794 483.845L314.895 484.334C315.859 484.136 316.828 483.939 317.801 483.744L317.703 483.255C318.676 483.06 319.654 482.866 320.636 482.673L320.732 483.162C321.713 482.969 322.698 482.779 323.688 482.589L323.594 482.098C324.581 481.908 325.572 481.719 326.568 481.532L326.661 482.023C327.625 481.842 328.594 481.662 329.566 481.483L329.475 480.992C330.448 480.813 331.425 480.636 332.406 480.46L332.495 480.95C333.474 480.774 334.458 480.599 335.445 480.425L335.359 479.934C336.347 479.76 337.338 479.588 338.333 479.416L338.418 479.907C339.4 479.738 340.386 479.57 341.375 479.403L341.292 478.911C342.264 478.747 343.239 478.584 344.217 478.423L344.298 478.916C345.276 478.755 346.258 478.594 347.243 478.436L347.162 477.941C348.148 477.782 349.136 477.625 350.128 477.469L350.206 477.962C351.198 477.805 352.193 477.65 353.191 477.496L353.115 477.003C354.096 476.851 355.081 476.701 356.069 476.552L356.144 477.045C357.119 476.898 358.098 476.751 359.079 476.606L359.006 476.113C359.989 475.968 360.974 475.823 361.962 475.681L362.034 476.175C363.021 476.032 364.012 475.891 365.006 475.751L364.936 475.256C365.93 475.115 366.928 474.977 367.928 474.839L367.996 475.333C368.98 475.197 369.966 475.063 370.954 474.93L370.888 474.436C371.867 474.304 372.849 474.172 373.833 474.042L373.899 474.537C374.883 474.407 375.87 474.279 376.86 474.151L376.795 473.655C377.785 473.528 378.778 473.403 379.774 473.277L379.836 473.772C380.831 473.647 381.829 473.523 382.829 473.4L382.769 472.906C383.757 472.785 384.747 472.665 385.741 472.546L385.8 473.04C386.781 472.923 387.765 472.807 388.75 472.691L388.692 472.195C389.678 472.08 390.666 471.965 391.658 471.852L391.714 472.349C392.705 472.236 393.698 472.123 394.694 472.013L394.638 471.518C395.634 471.407 396.632 471.297 397.633 471.188L397.687 471.684C398.681 471.576 399.678 471.47 400.676 471.364L400.623 470.867C401.606 470.763 402.591 470.66 403.578 470.559L403.628 471.056C404.615 470.954 405.603 470.853 406.594 470.754L406.544 470.258C407.536 470.158 408.529 470.06 409.525 469.963L409.574 470.459C410.569 470.362 411.566 470.266 412.566 470.171L412.519 469.674C413.519 469.579 414.521 469.484 415.526 469.392L415.572 469.89C416.556 469.799 417.542 469.709 418.531 469.62L418.486 469.123C419.473 469.034 420.462 468.947 421.453 468.86L421.496 469.357C422.487 469.271 423.479 469.185 424.474 469.101L424.432 468.604C425.427 468.519 426.424 468.436 427.423 468.354L427.464 468.852C428.463 468.769 429.464 468.688 430.466 468.608L430.426 468.111C431.42 468.032 432.416 467.954 433.414 467.877L433.453 468.374C434.439 468.298 435.427 468.222 436.417 468.148L436.38 467.65C437.371 467.576 438.363 467.505 439.358 467.433L439.394 467.93C440.388 467.858 441.383 467.788 442.38 467.718L442.346 467.22C443.344 467.15 444.343 467.081 445.344 467.014L445.378 467.512C446.379 467.444 447.382 467.378 448.386 467.312L448.354 466.813C449.343 466.749 450.333 466.686 451.326 466.624L451.357 467.122C452.346 467.06 453.337 466.999 454.329 466.939L454.3 466.44C455.293 466.38 456.287 466.321 457.284 466.263L457.313 466.763C458.309 466.705 459.306 466.647 460.305 466.592L460.278 466.094C461.277 466.038 462.279 465.983 463.282 465.93L463.308 466.428C464.307 466.374 465.308 466.323 466.311 466.271L466.286 465.771C467.274 465.721 468.265 465.672 469.256 465.624L469.281 466.123C470.272 466.075 471.266 466.027 472.26 465.98L472.237 465.482C473.232 465.436 474.228 465.39 475.226 465.346L475.247 465.845C476.245 465.8 477.244 465.757 478.245 465.715L478.223 465.216C479.224 465.174 480.226 465.134 481.23 465.094L481.249 465.592C482.246 465.552 483.245 465.513 484.245 465.476L484.226 464.977C485.217 464.939 486.209 464.902 487.203 464.867L487.22 465.367C488.213 465.332 489.207 465.298 490.203 465.265L490.186 464.767C491.182 464.734 492.179 464.701 493.178 464.67L493.194 465.169C494.192 465.138 495.191 465.108 496.192 465.079L496.178 464.579C497.179 464.55 498.181 464.524 499.185 464.497L499.199 464.996C500.195 464.97 501.192 464.943 502.191 464.919L502.178 464.421C503.17 464.397 504.163 464.372 505.158 464.35L505.169 464.85C506.163 464.827 507.159 464.806 508.155 464.786L508.144 464.287C509.141 464.267 510.139 464.248 511.138 464.229L511.147 464.729C512.145 464.711 513.145 464.694 514.146 464.678L514.138 464.178C515.139 464.162 516.141 464.149 517.145 464.135L517.152 464.634C518.148 464.62 519.146 464.607 520.144 464.596L520.138 464.097C521.13 464.085 522.124 464.073 523.119 464.063L523.12 464.064L523.124 464.564C524.119 464.555 525.114 464.546 526.111 464.539L526.107 464.04C527.104 464.033 528.102 464.027 529.101 464.021L529.104 464.52C530.102 464.514 531.102 464.51 532.103 464.507L532.101 464.007L532.1 464.006C533.102 464.003 534.104 464.003 535.108 464.002V464.501C535.609 464.5 536.111 464.5 536.613 464.5C537.114 464.5 537.616 464.5 538.118 464.501V464.002C539.121 464.003 540.122 464.003 541.123 464.006L541.122 464.507C542.123 464.51 543.123 464.514 544.121 464.52L544.122 464.021C545.122 464.027 546.12 464.033 547.117 464.04L547.115 464.539C548.111 464.546 549.107 464.555 550.101 464.564L550.106 464.064V464.063C551.1 464.073 552.094 464.085 553.086 464.097L553.081 464.596C554.08 464.607 555.077 464.62 556.073 464.634L556.078 464.135C557.082 464.149 558.085 464.162 559.086 464.178L559.079 464.678C560.08 464.694 561.08 464.711 562.078 464.729L562.086 464.229C563.086 464.248 564.084 464.267 565.08 464.287L565.071 464.786C566.067 464.806 567.062 464.827 568.056 464.85L568.067 464.35C569.061 464.372 570.054 464.397 571.045 464.421L571.035 464.919C572.033 464.943 573.031 464.969 574.027 464.995L574.039 464.497C575.043 464.524 576.045 464.55 577.046 464.579L577.033 465.079C578.033 465.108 579.033 465.138 580.032 465.169L580.046 464.67C581.045 464.701 582.042 464.734 583.038 464.767L583.023 465.265C584.018 465.298 585.012 465.332 586.005 465.367L586.022 464.867C587.015 464.902 588.008 464.939 588.998 464.977L588.98 465.476C589.98 465.513 590.979 465.552 591.976 465.592L591.995 465.094C592.998 465.134 594.001 465.174 595.001 465.216L594.981 465.715C595.981 465.757 596.981 465.8 597.978 465.845L597.998 465.346C598.996 465.39 599.993 465.436 600.988 465.482L600.965 465.98C601.96 466.027 602.953 466.075 603.945 466.123L603.968 465.624C604.96 465.672 605.95 465.721 606.939 465.771L606.914 466.271C607.917 466.323 608.918 466.374 609.917 466.428L609.943 465.93C610.946 465.983 611.947 466.038 612.947 466.094L612.919 466.592C613.918 466.648 614.917 466.705 615.912 466.763L615.941 466.263C616.937 466.321 617.931 466.38 618.924 466.44L618.896 466.939C619.888 466.999 620.879 467.06 621.869 467.122L621.899 466.624C622.891 466.686 623.882 466.749 624.87 466.813L624.839 467.312C625.844 467.378 626.846 467.444 627.847 467.512L627.88 467.014C628.881 467.081 629.881 467.15 630.878 467.22L630.845 467.718C631.842 467.788 632.838 467.858 633.831 467.93L633.867 467.433C634.861 467.505 635.853 467.576 636.844 467.65L636.808 468.148C637.798 468.222 638.786 468.298 639.773 468.374L639.81 467.877C640.808 467.954 641.804 468.032 642.798 468.111L642.759 468.608C643.762 468.688 644.762 468.769 645.761 468.852L645.801 468.354C646.8 468.436 647.797 468.519 648.792 468.604L648.751 469.101C649.746 469.185 650.738 469.271 651.729 469.357L651.772 468.86C652.763 468.947 653.752 469.034 654.739 469.123L654.695 469.62C655.683 469.709 656.67 469.799 657.654 469.89L657.699 469.392C658.703 469.484 659.705 469.579 660.705 469.674L660.66 470.171C661.659 470.266 662.657 470.362 663.652 470.459L663.7 469.963C664.695 470.06 665.689 470.158 666.68 470.258L666.631 470.754C667.622 470.853 668.611 470.954 669.597 471.056L669.648 470.559C670.634 470.66 671.619 470.763 672.601 470.867L672.549 471.364C673.548 471.47 674.545 471.576 675.538 471.684L675.591 471.188C676.592 471.297 677.59 471.407 678.586 471.518L678.532 472.013C679.527 472.123 680.521 472.236 681.511 472.349L681.567 471.852C682.558 471.965 683.546 472.08 684.533 472.195L684.476 472.691C685.461 472.807 686.445 472.923 687.425 473.04L687.484 472.546C688.477 472.665 689.467 472.785 690.455 472.906L690.396 473.4C691.396 473.523 692.394 473.647 693.389 473.772L693.451 473.277C694.446 473.403 695.439 473.528 696.429 473.655L696.366 474.151C697.355 474.279 698.342 474.407 699.327 474.537L699.391 474.042C700.376 474.172 701.358 474.303 702.337 474.436L702.271 474.93C703.26 475.063 704.246 475.197 705.229 475.333L705.296 474.839C706.297 474.977 707.294 475.115 708.288 475.256L708.219 475.751C709.213 475.891 710.204 476.032 711.192 476.175L711.262 475.681C712.251 475.823 713.236 475.968 714.218 476.113L714.146 476.606C715.128 476.751 716.107 476.898 717.082 477.045L717.156 476.552C718.144 476.701 719.128 476.851 720.11 477.003L720.035 477.496C721.033 477.65 722.028 477.805 723.019 477.962L723.096 477.469C724.088 477.625 725.077 477.782 726.062 477.941L725.983 478.436C726.967 478.594 727.949 478.755 728.927 478.916L729.007 478.423C729.986 478.584 730.96 478.747 731.932 478.911L731.85 479.403C732.839 479.57 733.825 479.738 734.807 479.907L734.891 479.416C735.887 479.588 736.878 479.76 737.867 479.934L737.781 480.425C738.768 480.599 739.751 480.774 740.731 480.95L740.819 480.46C741.799 480.636 742.776 480.813 743.749 480.992L743.66 481.483C744.632 481.662 745.6 481.842 746.565 482.023L746.657 481.532C747.652 481.719 748.643 481.908 749.63 482.098L749.537 482.589C750.527 482.779 751.512 482.969 752.494 483.162L752.589 482.673C753.571 482.866 754.549 483.06 755.522 483.255L755.425 483.744C756.398 483.939 757.366 484.136 758.33 484.334L758.43 483.845C759.409 484.045 760.384 484.248 761.354 484.451L761.252 484.939C762.243 485.147 763.23 485.356 764.211 485.566L764.315 485.079C765.297 485.29 766.275 485.502 767.248 485.715L767.142 486.202C768.114 486.415 769.082 486.629 770.045 486.845L770.154 486.357C771.118 486.573 772.078 486.79 773.034 487.009L772.923 487.497C773.914 487.724 774.901 487.952 775.881 488.182L775.995 487.695C776.976 487.925 777.952 488.156 778.923 488.389L778.808 488.875C779.778 489.108 780.743 489.342 781.703 489.577L781.821 489.092C782.781 489.327 783.737 489.564 784.687 489.803L784.566 490.287C785.549 490.534 786.526 490.782 787.497 491.031L787.62 490.547C788.599 490.798 789.572 491.052 790.539 491.307L790.413 491.789C791.379 492.043 792.339 492.299 793.293 492.556L793.422 492.073C794.377 492.33 795.327 492.589 796.27 492.849L796.137 493.33C797.114 493.6 798.086 493.871 799.05 494.144L799.185 493.663C800.158 493.938 801.125 494.214 802.084 494.492L801.947 494.973C802.905 495.251 803.857 495.53 804.802 495.811L804.944 495.332C805.89 495.613 806.829 495.896 807.761 496.18L807.617 496.658C808.593 496.956 809.562 497.255 810.523 497.556L810.671 497.079C811.635 497.381 812.591 497.684 813.539 497.989L813.387 498.465C814.334 498.769 815.273 499.076 816.204 499.384L816.361 498.91C817.309 499.223 818.249 499.539 819.181 499.855L819.021 500.327C819.986 500.655 820.942 500.984 821.889 501.315L822.052 500.846C823.001 501.177 823.941 501.51 824.871 501.845L824.703 502.313C825.631 502.648 826.551 502.984 827.462 503.322L827.635 502.854C828.592 503.209 829.54 503.565 830.477 503.924H830.478L830.299 504.391C831.243 504.752 832.177 505.115 833.1 505.479L833.283 505.017C834.207 505.382 835.121 505.75 836.025 506.119L835.837 506.579C836.771 506.96 837.695 507.344 838.606 507.729L838.799 507.271C839.737 507.667 840.664 508.064 841.578 508.464L841.377 508.922C842.289 509.321 843.189 509.723 844.077 510.126L844.282 509.673C845.2 510.09 846.105 510.509 846.996 510.931L846.786 511.381C847.706 511.816 848.613 512.253 849.505 512.692L849.725 512.243C850.62 512.684 851.499 513.129 852.366 513.573L852.14 514.016C853.041 514.478 853.925 514.943 854.794 515.409L855.03 514.97C855.927 515.452 856.807 515.937 857.671 516.424L857.428 516.857C858.289 517.342 859.133 517.829 859.959 518.318L860.213 517.89C861.101 518.415 861.97 518.943 862.819 519.474H862.82L862.555 519.897C863.407 520.43 864.239 520.966 865.05 521.504L865.327 521.087C866.168 521.645 866.988 522.206 867.786 522.77L867.498 523.178C868.332 523.766 869.141 524.358 869.925 524.951L870.226 524.553C871.021 525.155 871.791 525.76 872.536 526.367L872.221 526.755C873.02 527.406 873.789 528.061 874.528 528.719L874.859 528.345C875.603 529.007 876.319 529.672 877.003 530.341L876.655 530.698C877.393 531.419 878.096 532.144 878.762 532.871L879.13 532.534C879.806 533.272 880.445 534.014 881.047 534.759L880.66 535.073C881.305 535.871 881.906 536.673 882.463 537.478L882.872 537.193C883.448 538.024 883.978 538.859 884.46 539.697L884.029 539.947C884.531 540.82 884.981 541.695 885.379 542.574L885.833 542.368Z" stroke="url(#paint2_linear_5236_135)" stroke-opacity="0.98" stroke-dasharray="3 3"/>
<path d="M541.613 260C689.983 260 824.274 274.882 921.443 298.926C970.035 310.95 1009.29 325.251 1036.37 341.094C1063.52 356.977 1078.11 374.213 1078.11 392C1078.11 409.787 1063.52 427.023 1036.37 442.906C1009.29 458.749 970.035 473.05 921.443 485.074C824.274 509.118 689.983 524 541.613 524C393.243 524 258.952 509.118 161.783 485.074C113.19 473.05 73.9374 458.749 46.8568 442.906C19.7064 427.023 5.11267 409.787 5.11267 392C5.11267 374.213 19.7064 356.977 46.8568 341.094C73.9374 325.251 113.19 310.95 161.783 298.926C258.952 274.882 393.243 260 541.613 260Z" stroke="url(#paint3_linear_5236_135)" stroke-width="2"/>
<path d="M327.227 512.007C326.678 511.944 326.182 512.337 326.119 512.886C326.056 513.435 326.45 513.93 326.999 513.993L327.113 513L327.227 512.007ZM347.406 516.043C347.839 515.7 347.911 515.071 347.568 514.638L341.972 507.589C341.628 507.157 340.999 507.085 340.567 507.428C340.134 507.771 340.062 508.4 340.405 508.833L345.38 515.098L339.114 520.073C338.682 520.416 338.609 521.045 338.953 521.478C339.296 521.91 339.925 521.982 340.358 521.639L347.406 516.043ZM327.113 513L326.999 513.993L346.67 516.253L346.785 515.26L346.899 514.266L327.227 512.007L327.113 513Z" fill="white"/>
<path d="M725.03 515.003C724.479 515.049 724.07 515.533 724.116 516.083C724.162 516.633 724.645 517.042 725.196 516.997L725.113 516L725.03 515.003ZM737.876 515.646C738.233 515.224 738.18 514.593 737.759 514.237L730.888 508.423C730.467 508.066 729.836 508.119 729.479 508.541C729.122 508.962 729.175 509.593 729.596 509.95L735.703 515.117L730.536 521.225C730.179 521.646 730.232 522.277 730.653 522.634C731.075 522.991 731.706 522.938 732.063 522.516L737.876 515.646ZM725.113 516L725.196 516.997L737.196 515.997L737.113 515L737.03 514.003L725.03 515.003L725.113 516Z" fill="white"/>
<path d="M1072.84 408.444C1072.61 408.947 1072.83 409.54 1073.34 409.767C1073.84 409.994 1074.43 409.77 1074.66 409.267L1073.75 408.855L1072.84 408.444ZM1078.17 400.791C1077.97 400.274 1077.39 400.013 1076.88 400.209L1068.46 403.39C1067.94 403.585 1067.68 404.163 1067.88 404.679C1068.07 405.196 1068.65 405.456 1069.17 405.261L1076.65 402.433L1079.48 409.916C1079.67 410.433 1080.25 410.694 1080.77 410.498C1081.28 410.303 1081.54 409.726 1081.35 409.209L1078.17 400.791ZM1073.75 408.855L1074.66 409.267L1078.14 401.556L1077.23 401.144L1076.32 400.733L1072.84 408.444L1073.75 408.855Z" fill="#6B91EA"/>
<path d="M702.046 266.998C702.597 267.035 703.074 266.618 703.11 266.066C703.147 265.515 702.73 265.039 702.179 265.002L702.113 266L702.046 266.998ZM686.454 264.248C686.038 264.611 685.996 265.243 686.359 265.659L692.286 272.432C692.65 272.848 693.282 272.89 693.697 272.526C694.113 272.162 694.155 271.53 693.791 271.115L688.523 265.094L694.544 259.826C694.959 259.462 695.001 258.831 694.638 258.415C694.274 257.999 693.642 257.957 693.227 258.321L686.454 264.248ZM702.113 266L702.179 265.002L687.179 264.003L687.112 265L687.046 265.998L702.046 266.998L702.113 266Z" fill="white"/>
<path d="M369.212 267.995C369.762 267.94 370.163 267.45 370.108 266.9C370.053 266.351 369.563 265.95 369.013 266.005L369.113 267L369.212 267.995ZM358.338 267.367C357.988 267.795 358.051 268.425 358.479 268.774L365.445 274.473C365.872 274.823 366.502 274.76 366.852 274.332C367.201 273.905 367.138 273.275 366.711 272.925L360.519 267.86L365.585 261.668C365.935 261.24 365.872 260.61 365.444 260.261C365.017 259.911 364.387 259.974 364.037 260.401L358.338 267.367ZM369.113 267L369.013 266.005L359.013 267.005L359.112 268L359.212 268.995L369.212 267.995L369.113 267Z" fill="white"/>
<path d="M9.06473 378.306C9.23377 377.78 8.94456 377.217 8.41878 377.048C7.893 376.879 7.32974 377.168 7.16071 377.694L8.11272 378L9.06473 378.306ZM4.22142 387.794C4.47368 388.285 5.07646 388.479 5.56777 388.226L13.5741 384.116C14.0655 383.863 14.2592 383.261 14.007 382.769C13.7547 382.278 13.1519 382.084 12.6606 382.337L5.54385 385.991L1.8898 378.874C1.63754 378.383 1.03476 378.189 0.543455 378.441C0.0521464 378.693 -0.141641 379.296 0.110619 379.787L4.22142 387.794ZM8.11272 378L7.16071 377.694L4.159 387.031L5.11101 387.337L6.06303 387.643L9.06473 378.306L8.11272 378Z" fill="white"/>
<path d="M152.613 490C156.755 490 160.113 486.642 160.113 482.5C160.113 478.358 156.755 475 152.613 475C148.471 475 145.113 478.358 145.113 482.5C145.113 486.642 148.471 490 152.613 490Z" fill="white"/>
<path d="M921.613 492C925.755 492 929.113 488.642 929.113 484.5C929.113 480.358 925.755 477 921.613 477C917.471 477 914.113 480.358 914.113 484.5C914.113 488.642 917.471 492 921.613 492Z" fill="white"/>
<path d="M534.613 266C538.755 266 542.113 262.642 542.113 258.5C542.113 254.358 538.755 251 534.613 251C530.471 251 527.113 254.358 527.113 258.5C527.113 262.642 530.471 266 534.613 266Z" fill="white"/>
</g>
<defs>
<linearGradient id="paint0_linear_5236_135" x1="551.113" y1="-5.78605e-06" x2="550.113" y2="189" gradientUnits="userSpaceOnUse">
<stop offset="0.2" stop-color="white" stop-opacity="0.11"/>
<stop offset="1" stop-color="white"/>
</linearGradient>
<linearGradient id="paint1_linear_5236_135" x1="555.613" y1="61" x2="557.433" y2="190.996" gradientUnits="userSpaceOnUse">
<stop stop-color="white" stop-opacity="0.23"/>
<stop offset="1" stop-color="white"/>
</linearGradient>
<linearGradient id="paint2_linear_5236_135" x1="543.673" y1="464" x2="547.019" y2="640.965" gradientUnits="userSpaceOnUse">
<stop stop-color="white" stop-opacity="0.23"/>
<stop offset="1" stop-color="white"/>
</linearGradient>
<linearGradient id="paint3_linear_5236_135" x1="554.23" y1="259" x2="552.66" y2="524.998" gradientUnits="userSpaceOnUse">
<stop offset="0.2" stop-color="white" stop-opacity="0.11"/>
<stop offset="1" stop-color="white"/>
</linearGradient>
<clipPath id="clip0_5236_135">
<rect width="1082" height="828" fill="white"/>
</clipPath>
</defs>
</svg>
