<svg width="168" height="57" viewBox="0 0 168 57" fill="none" xmlns="http://www.w3.org/2000/svg">
<g clip-path="url(#clip0_2005_2007)">
<path d="M43.6292 39.3409L45.9761 42.1858H44.8958L42.8991 39.7463H41.9007V42.1858H40.9992V36.5365H41.9007V39.0233H42.8767L44.9256 36.5365H45.924L43.6292 39.3409ZM52.7263 36.5365H53.6502L50.8637 42.1858H49.8877L50.6402 40.7126L48.174 36.5365H49.1724L51.117 39.8815L52.7263 36.5365ZM57.8672 42.1858V37.2055H55.7512V36.5365H60.907V37.2055H58.806V42.1858H57.8672ZM67.7243 36.5365H68.6481L65.8616 42.1858H64.8781L65.6381 40.7126L63.172 36.5365H64.1703L66.1075 39.8815L67.7243 36.5365ZM75.9273 40.6789C75.9273 41.7127 74.9513 42.2533 73.4537 42.2533C72.4851 42.2533 71.6432 41.9763 70.9578 41.4357L71.4197 40.8613C72.0456 41.3478 72.7012 41.5911 73.4016 41.5911C74.2956 41.5911 74.9587 41.2532 74.9587 40.5707C74.9587 39.9017 74.3254 39.6112 73.4016 39.6112H72.1573V39.003H73.3271C74.1913 39.003 74.8172 38.6989 74.8172 38.0434C74.8172 37.4218 74.2733 37.1312 73.4612 37.1312C72.8055 37.1312 72.135 37.3677 71.4644 37.834L70.9801 37.2528C71.7699 36.719 72.6118 36.4554 73.4761 36.4554C74.8917 36.4554 75.7559 36.996 75.7559 37.9218C75.7634 38.557 75.3163 39.0503 74.5042 39.2801C75.4058 39.4355 75.9273 39.9288 75.9273 40.6789ZM79.6004 41.4627C78.9895 40.9221 78.684 40.2261 78.684 39.3679C78.684 38.503 78.9969 37.8069 79.6079 37.2663C80.2188 36.7257 81.0309 36.4554 82.0218 36.4554C83.0277 36.4554 83.8323 36.719 84.4433 37.2663C85.0542 37.8069 85.3597 38.503 85.3597 39.3679C85.3597 40.2261 85.0542 40.9154 84.4433 41.4627C83.8323 41.9965 83.0277 42.2601 82.0218 42.2601C81.0235 42.2601 80.2114 41.9965 79.6004 41.4627ZM83.7355 40.9424C84.175 40.5437 84.3911 40.0301 84.3911 39.3747C84.3911 38.7192 84.1676 38.1854 83.7355 37.7934C83.2959 37.3947 82.7222 37.1988 82.0144 37.1988C81.3215 37.1988 80.7478 37.4015 80.3082 37.7934C79.8686 38.1921 79.6526 38.7124 79.6526 39.3747C79.6526 40.0301 79.8761 40.5437 80.3082 40.9424C80.7552 41.3276 81.3215 41.5235 82.0144 41.5235C82.7222 41.5235 83.3033 41.3343 83.7355 40.9424ZM92.9965 39.7058C93.2647 39.9423 93.3988 40.2599 93.3988 40.6586C93.3988 41.1316 93.2125 41.5168 92.84 41.7803C92.4749 42.0439 91.9907 42.1858 91.417 42.1858H88.4218V36.5298H91.1785C92.4153 36.5298 93.1753 37.0569 93.1753 37.9826C93.1753 38.6989 92.6836 39.0976 92.1173 39.2801C92.4451 39.3274 92.7432 39.476 92.9965 39.7058ZM89.3681 37.165V39.0165H91.1338C91.8044 39.0165 92.2142 38.6449 92.2142 38.1043C92.2142 37.5299 91.7299 37.165 91.0891 37.165H89.3681ZM91.2456 41.5573C91.9236 41.5573 92.4228 41.1586 92.4228 40.5775C92.4228 40.0504 92.013 39.6179 91.2531 39.6179H89.3681V41.5573H91.2456ZM97.0347 41.4627C96.4088 40.9356 96.1033 40.2329 96.1033 39.3611C96.1033 38.4962 96.4088 37.7934 97.0198 37.2596C97.6307 36.7257 98.4503 36.4622 99.4561 36.4622C100.566 36.4622 101.326 36.7595 102.004 37.4015L101.349 37.9353C100.857 37.4353 100.246 37.1853 99.5082 37.1853C98.7781 37.1853 98.1895 37.388 97.735 37.7799C97.288 38.1786 97.0645 38.6989 97.0645 39.3544C97.0645 40.0099 97.288 40.5437 97.735 40.9356C98.1895 41.3343 98.7706 41.5303 99.4784 41.5303C100.238 41.5303 100.879 41.2532 101.423 40.7126L102.049 41.2532C101.356 41.9087 100.507 42.2398 99.5231 42.2398C98.4801 42.2466 97.6605 41.983 97.0347 41.4627ZM107.465 39.3409L109.82 42.1858H108.732L106.735 39.7463H105.737V42.1858H104.843V36.5365H105.737V39.0233H106.72L108.769 36.5365H109.76L107.465 39.3409ZM116.92 36.5365H117.792V42.1925H116.898V39.7125C116.905 38.8273 116.928 38.1516 116.95 37.6988L113.426 42.1858H112.547L112.554 36.5298H113.456V39.0098C113.456 39.7936 113.426 40.4694 113.381 41.0302V41.037L116.92 36.5365ZM125.637 36.5365H126.502V42.1925H125.607V39.7125C125.607 39.1246 125.622 38.4557 125.652 37.6988L122.128 42.1858H121.256V36.5298H122.165V39.0098C122.165 39.6787 122.136 40.3612 122.091 41.0302L125.637 36.5365ZM125.295 35.7662H122.508V35.2999H125.295V35.7662ZM62.1587 21.8796C62.2779 21.7513 62.4865 21.5553 62.8591 21.4742C63.4551 21.2917 64.4982 21.4066 65.7052 21.6229C66.9047 21.8391 67.7839 21.6904 68.2234 21.2647C68.6854 20.8728 68.7077 20.1903 68.7375 20.2308C68.7152 20.1903 68.5364 20.6295 67.918 20.7782C67.3219 20.9606 66.2788 20.8458 65.0793 20.6295C63.8798 20.4133 63.0006 20.5619 62.561 20.9877C62.3673 21.1566 62.2481 21.3796 62.1736 21.5688M77.6633 21.2174H75.6665V14.6289H78.304C78.9969 14.6289 79.5483 14.7438 79.9878 14.9398C80.6435 15.2371 81.0607 15.6966 81.3215 16.2372C81.5823 16.771 81.6717 17.3792 81.6717 17.9198C81.6717 18.6293 81.4407 19.4537 80.8298 20.0957C80.2263 20.7376 79.2353 21.2174 77.6633 21.2174ZM85.5459 28.0627C85.531 28.0559 85.084 27.7181 84.8381 27.5018C84.5923 27.2856 84.2346 26.8802 83.7578 26.1436C83.5119 25.7719 82.983 25.0016 82.4689 24.265C82.2081 23.9001 81.9548 23.542 81.7462 23.2446C81.5301 22.9473 81.3587 22.7176 81.2544 22.5959C80.8968 22.1837 80.5019 21.9067 80.0847 21.6972C81.1054 21.5283 81.9697 21.1701 82.6104 20.6363C83.3704 20.0011 83.81 19.1294 83.81 18.0887C83.81 17.5616 83.728 17.0481 83.5343 16.5683C83.2437 15.8453 82.7073 15.2101 81.8579 14.7573C81.0086 14.3046 79.8537 14.041 78.3338 14.041H72.6416C73.1482 14.1694 73.4165 14.514 73.491 15.3857C73.5059 15.5614 73.5133 15.7642 73.5133 15.9872V25.7719C73.5133 26.1841 73.4984 26.5153 73.4686 26.7923C73.3792 27.6167 73.1333 27.9208 72.6416 28.0559H76.5457C76.1285 27.9411 75.89 27.7046 75.7708 27.1234C75.7038 26.7991 75.674 26.3598 75.674 25.7719V21.8121H77.2907C77.6782 21.8661 77.9985 22.008 78.2966 22.2445C78.602 22.4811 78.8852 22.8122 79.1906 23.2379C79.7196 23.9745 80.8297 25.5219 81.6195 26.6504C81.9175 27.0761 82.2304 27.4275 82.6253 27.6775C83.0202 27.9276 83.4896 28.0627 84.0633 28.0627H85.2181M39.4718 25.7787V16.0682C39.4718 14.6762 39.7102 14.2032 40.3435 14.041H36.4395C37.0504 14.2032 37.3112 14.6559 37.3112 15.9872V25.7719C37.3112 27.4005 37.0951 27.8735 36.4395 28.0559H40.3435C39.6879 27.8803 39.4718 27.4005 39.4718 25.7787ZM103.42 20.116C102.809 20.7579 101.825 21.2309 100.253 21.2377H98.2267V14.6424H100.916C101.602 14.6424 102.153 14.7573 102.585 14.9533C103.241 15.2438 103.651 15.7101 103.912 16.2507C104.172 16.7913 104.262 17.3927 104.262 17.9401C104.262 18.6496 104.031 19.474 103.42 20.116ZM106.109 16.5953C105.819 15.8723 105.282 15.2303 104.433 14.7708C103.584 14.3113 102.421 14.0478 100.887 14.0478H95.2242C95.8202 14.2032 96.0884 14.6492 96.0959 15.9196V25.7787C96.0959 26.0557 96.0884 26.2923 96.0735 26.5017C96.0065 27.5559 95.7681 27.914 95.2242 28.0627H99.1283C98.7408 27.9546 98.5099 27.7451 98.3832 27.2518C98.2938 26.9139 98.2566 26.4409 98.2566 25.7787V21.8391H101.073C102.541 21.8391 103.859 21.4877 104.82 20.8458C105.297 20.5214 105.692 20.1295 105.96 19.67C106.229 19.2105 106.378 18.6901 106.378 18.1158C106.385 17.5887 106.303 17.0751 106.109 16.5953ZM149.807 26.2044C149.278 25.5895 146.119 21.4337 145.739 20.9539C145.411 20.5349 145.046 20.2849 144.666 20.1497C144.286 20.0146 143.891 19.9876 143.496 19.9876C143.407 19.9876 143.325 19.9876 143.235 19.9943C145.307 18.1833 146.35 17.2643 146.938 16.7507C147.549 16.2102 147.669 16.0953 147.937 15.8453C148.555 15.2911 149.151 14.9262 149.598 14.6897C149.822 14.5749 150.001 14.4938 150.135 14.4397C150.202 14.4127 150.246 14.3924 150.284 14.3856C150.299 14.3789 150.313 14.3721 150.321 14.3721H150.328L151.245 14.0748H146.871L147.579 14.3654C147.669 14.4059 147.743 14.4667 147.803 14.5478C147.855 14.6289 147.885 14.7303 147.885 14.8452C147.885 15.0411 147.788 15.2844 147.549 15.5141C146.409 16.5345 144.159 18.4671 141.738 20.6295V16.0818C141.738 15.7574 141.753 15.4871 141.783 15.2574C141.872 14.5276 142.103 14.21 142.55 14.0816L142.617 14.0613H138.713C138.735 14.068 138.758 14.0748 138.773 14.0816C139.167 14.2032 139.406 14.4735 139.518 15.0681C139.562 15.3182 139.585 15.6223 139.585 16.0074V25.7922C139.585 26.3936 139.555 26.8396 139.48 27.1707C139.361 27.7316 139.123 27.9613 138.713 28.0762H142.617C142.163 27.9546 141.917 27.6843 141.812 26.9815C141.768 26.6774 141.745 26.2855 141.745 25.7922V21.3188C141.999 21.0958 142.245 20.8795 142.483 20.6633C142.528 20.6228 142.58 20.6025 142.639 20.6025C142.699 20.6025 142.759 20.6228 142.811 20.6566C143.027 20.7985 143.221 21.0012 143.429 21.2444C143.63 21.4877 143.839 21.7783 144.077 22.0959C144.718 22.9135 146.849 25.5287 147.236 25.9949C147.646 26.495 147.996 27.0018 148.458 27.4005C148.689 27.5964 148.95 27.7654 149.255 27.887C149.561 28.0086 149.919 28.0695 150.336 28.0695H152.049C152.057 28.0627 151.222 27.8803 149.807 26.2044Z" fill="#01203F"/>
<path d="M62.2794 14.0484H59.247C59.858 14.2105 60.1187 14.6633 60.1187 15.9945V25.7793C60.1187 27.4078 59.9027 27.8808 59.247 28.0633H69.9013V26.2185C69.7225 26.7929 69.2009 27.4754 67.6736 27.4754H62.2794V14.6363H67.6736C69.2009 14.6363 69.7225 15.312 69.9013 15.8931V14.0551H62.2794V14.0484ZM32.9392 27.5024C32.6933 27.2862 32.3357 26.8807 31.8588 26.1442C31.613 25.7725 31.084 25.0022 30.5699 24.2656C30.3091 23.9007 30.0558 23.5426 29.8472 23.2452C29.6311 22.9479 29.4598 22.7182 29.3555 22.5965C28.9978 22.1843 28.603 21.9073 28.1857 21.6978C29.2064 21.5288 30.0707 21.1707 30.7115 20.6369C31.4714 20.0017 31.911 19.13 31.911 18.0893C31.911 17.5622 31.829 17.0487 31.6353 16.5689C31.3448 15.8458 30.8083 15.2106 29.959 14.7579C29.1096 14.3119 27.9548 14.0416 26.4349 14.0416H15.4453V14.616H26.405C27.0979 14.616 27.6493 14.7309 28.0889 14.9268C28.7445 15.2174 29.1617 15.6837 29.4225 16.2243C29.6833 16.7581 29.7727 17.3663 29.7727 17.9069C29.7727 18.6164 29.5417 19.4408 28.9308 20.0828C28.3198 20.7247 27.3364 21.1977 25.7643 21.2045H23.7676V16.6027V17.1365C23.7676 15.8053 23.6409 15.1904 22.8958 15.1904H20.7352C21.3461 15.3525 21.6069 15.8053 21.6069 17.1365V25.7725C21.6069 26.178 21.592 26.5158 21.5622 26.7929C21.4728 27.6173 21.2269 27.9214 20.7352 28.0565H24.6393C24.222 27.9417 23.9836 27.7051 23.8644 27.124C23.7974 26.7996 23.7676 26.3604 23.7676 25.7725V21.8127H25.3843C25.7718 21.8667 26.0847 22.0086 26.3901 22.2451C26.6956 22.4816 26.9787 22.8128 27.2842 23.2385C27.8132 23.975 28.9233 25.5225 29.7131 26.651C30.0111 27.0767 30.324 27.4281 30.7189 27.6781C31.1138 27.9281 31.5832 28.0633 32.1569 28.0633H33.6395C33.6246 28.0565 33.1776 27.7187 32.9392 27.5024ZM135.667 27.5024C135.421 27.2862 135.064 26.8807 134.587 26.1442C134.341 25.7725 133.812 25.0022 133.298 24.2656C133.037 23.9007 132.784 23.5426 132.575 23.2452C132.359 22.9479 132.188 22.7182 132.083 22.5965C131.726 22.1843 131.331 21.9073 130.914 21.6978C131.934 21.5288 132.799 21.1707 133.439 20.6369C134.199 20.0017 134.639 19.13 134.639 18.0893C134.639 17.5622 134.557 17.0487 134.363 16.5689C134.073 15.8458 133.536 15.2106 132.687 14.7579C131.838 14.3051 130.683 14.0416 129.163 14.0416H118.188V14.616H129.148C129.841 14.616 130.392 14.7309 130.832 14.9268C131.487 15.2242 131.905 15.6837 132.165 16.2243C132.426 16.7581 132.516 17.3663 132.516 17.9069C132.516 18.6164 132.285 19.4408 131.674 20.0828C131.063 20.7247 130.079 21.1977 128.507 21.2045H126.51V16.6027V17.1365C126.51 15.8053 126.384 15.1904 125.639 15.1904H123.478C124.089 15.3525 124.35 15.8053 124.35 17.1365V25.7725C124.35 26.178 124.335 26.5158 124.305 26.7929C124.216 27.6173 123.97 27.9214 123.478 28.0565H127.382C126.965 27.9417 126.727 27.7051 126.607 27.124C126.54 26.7996 126.51 26.3604 126.51 25.7725V21.8127H128.127C128.515 21.8667 128.828 22.0086 129.133 22.2451C129.438 22.4816 129.722 22.8128 130.027 23.2385C130.556 23.975 131.666 25.5225 132.456 26.651C132.754 27.0767 133.067 27.4281 133.462 27.6781C133.857 27.9281 134.326 28.0633 134.9 28.0633H136.382C136.36 28.0565 135.913 27.7187 135.667 27.5024ZM51.0887 25.117C51.0961 25.1238 51.0961 25.1373 51.1036 25.1441C51.111 25.1306 51.1185 25.1103 51.1259 25.0968C51.2377 24.8535 51.3941 24.4954 51.5879 24.0764C51.9753 23.225 52.4894 22.0965 53.0035 20.9477C53.4356 20.0017 53.8677 19.0489 54.2328 18.238L54.3818 17.9204C54.4787 17.7041 54.5904 17.4676 54.7022 17.2244C54.7841 17.0487 54.8586 16.873 54.9331 16.6905L55.0226 16.4675C55.1269 16.2107 55.2088 15.954 55.2833 15.6904C55.3504 15.4269 55.3951 15.1701 55.4025 14.9133C55.41 14.7444 55.4025 14.5754 55.3876 14.4133C55.3727 14.2849 55.3429 14.17 55.2982 14.0484H56.9969C56.5946 14.9336 52.6831 23.3128 51.342 26.3131C50.895 27.3132 50.6044 27.9687 50.6044 27.9687L50.5597 28.0633H49.8668L49.8444 28.0092L49.8295 27.9687C49.8295 27.9687 49.8295 27.9619 49.8146 27.9417C49.7625 27.8268 49.5315 27.3402 49.2037 26.6307C48.8237 25.8131 48.3022 24.6981 47.7508 23.5223C46.6482 21.1639 45.4188 18.5285 44.9047 17.4474C44.5322 16.6432 44.2491 16.0013 43.9138 15.5012C43.5785 15.0012 43.1986 14.6363 42.61 14.3457L42.0139 14.0551H43.0048C44.7557 14.0551 46.3576 15.0214 46.9983 16.4946V16.5013L51.0887 25.117ZM109.516 22.9276L112.258 16.8054C112.302 16.9068 112.362 17.0149 112.421 17.15C113.01 18.3799 114.269 21.0153 115.171 22.9209H109.516V22.9276ZM120.841 27.7862C120.289 27.3943 119.902 27.0226 119.559 26.5429C119.216 26.0631 118.911 25.4752 118.523 24.6711C118.009 23.5763 116.78 20.9342 115.677 18.5691C115.126 17.3865 114.604 16.2716 114.225 15.4471C114.031 15.0349 113.874 14.7038 113.77 14.4673C113.658 14.2376 113.599 14.1024 113.599 14.1024L113.554 14.0078H112.861L112.816 14.1024C112.816 14.1024 111.639 16.7243 110.395 19.4949C109.777 20.8801 109.143 22.306 108.629 23.4547C108.123 24.6102 107.735 25.4887 107.608 25.7928C107.31 26.5023 107.057 26.9145 106.804 27.1848C106.424 27.6241 105.887 27.9349 105.269 28.0565H108.808C108.443 27.9552 108.145 27.7119 107.996 27.3943C107.944 27.2997 107.914 27.1916 107.899 27.0632C107.899 27.0429 107.899 27.0159 107.892 26.9956V26.9416C107.892 26.8875 107.899 26.8267 107.906 26.7794C107.936 26.5564 108.011 26.2928 108.137 25.9888C108.152 25.9482 108.197 25.8604 108.257 25.7185C108.443 25.3063 108.808 24.4751 109.262 23.4885H115.417C115.692 24.0494 115.908 24.5021 116.05 24.7927C116.244 25.1981 116.43 25.5968 116.571 25.9752C116.713 26.3537 116.802 26.7118 116.802 27.0226C116.802 27.3335 116.72 27.5903 116.527 27.8133L116.311 28.0633H121.228L120.841 27.7862Z" fill="#01203F"/>
</g>
<defs>
<clipPath id="clip0_2005_2007">
<rect width="167.503" height="56.2016" fill="white"/>
</clipPath>
</defs>
</svg>

