<svg width="230" height="91" viewBox="0 0 230 91" fill="none" xmlns="http://www.w3.org/2000/svg">
<path d="M95.0079 34.5175H96.9893V55.7935H95.0079V34.5175ZM66.977 48.3679C66.7172 46.6245 65.8727 45.2362 64.3136 44.3968L63.7615 44.1062L63.9888 43.9125C64.0538 43.8479 64.1512 43.7834 64.2811 43.6542C67.0745 41.5557 66.7172 36.9066 63.6315 35.2923C62.3648 34.6466 61.0006 34.4852 59.6039 34.4852L51.1914 34.4529V55.8258C51.1914 55.8258 55.4139 55.8581 57.1029 55.8581C58.3047 55.7935 59.8962 55.9872 61.4878 55.7289C63.0794 55.4706 64.476 54.7926 65.5804 53.5335C66.8471 52.0484 67.2694 50.305 66.977 48.3679ZM54.8617 37.8752H60.1236C61.3904 37.8752 62.3973 38.876 62.3973 40.1351V40.5225C62.3973 41.7817 61.3904 42.7825 60.1236 42.7825H54.8617V37.8752ZM59.9937 52.4681H54.8942V45.9465H59.9612C61.7801 45.9465 63.2418 47.3993 63.2418 49.2073C63.2742 51.0153 61.7801 52.4681 59.9937 52.4681ZM78.0205 56.1809C76.5264 56.1809 75.1947 56.0518 73.9604 55.5675C71.7842 54.7604 70.2576 53.2429 69.5105 51.0153C68.2438 47.2056 68.1464 43.3959 69.7379 39.6831C71.2645 36.1318 74.0254 34.3238 77.8256 34.1946C79.742 34.1301 81.5934 34.4206 83.3149 35.3569C83.932 35.6798 84.0294 35.9058 83.7371 36.5837C83.5097 37.1003 83.2174 37.5846 83.0225 38.1334C82.8277 38.5854 82.6003 38.6823 82.1456 38.4886C80.9762 38.0043 79.742 37.746 78.4752 37.6814C75.7469 37.5523 73.9929 39.0697 73.1484 41.3943C72.2389 43.8479 72.174 46.3339 72.8885 48.8199C73.6031 51.3058 75.422 52.6295 77.9231 52.6941C79.5146 52.7264 81.0412 52.3712 82.5353 51.7901C83.4123 51.435 83.4773 51.4673 83.867 52.3712C84.0619 52.8232 84.2568 53.3075 84.4842 53.7595C84.7115 54.2438 84.5816 54.5344 84.1269 54.7926C82.7627 55.5352 81.3011 55.9226 79.7745 56.0841C79.1248 56.1486 78.5077 56.2455 78.0205 56.1809Z" fill="#01203F"/>
<path d="M81.7203 38.327L82.8247 38.779L84.2538 35.8733L83.1819 35.3245L81.7203 38.327ZM82.4674 51.79L83.4418 51.3703L84.806 54.4696L83.5717 55.0185L82.4674 51.79ZM30.8555 55.9225H34.9156L40.08 38.4884L45.3094 55.9225H49.3045L42.2237 34.6465H37.9363L30.8555 55.9225Z" fill="#01203F"/>
<path d="M35.793 47.9787H44.238V51.2718H35.793V47.9787ZM119.204 34.3866V44.2337H117.969V35.4843L114.331 44.2337H113L109.362 35.4843V44.2337H108.16V34.3866H110.174L113.714 42.9422L117.19 34.3866H119.204ZM126.219 34.1929C128.59 34.1606 130.247 36.13 130.214 38.616V39.3909H123.069C123.101 42.1028 124.498 43.3297 126.187 43.3297H126.317C127.681 43.3297 128.558 42.7162 128.915 41.3925H130.214C129.987 42.3611 129.532 43.1037 128.818 43.6202C128.103 44.1368 127.259 44.3951 126.219 44.3951C123.718 44.4274 121.769 42.5225 121.802 39.2617C121.737 35.9686 123.881 34.1606 126.219 34.1929ZM128.948 38.3254C128.883 36.5498 127.843 35.2583 126.317 35.2583H126.122C124.79 35.2583 123.394 36.0655 123.134 38.3254H128.948ZM142.492 43.1682V47.0102H141.29V44.2659H132.553V47.0102H131.351V43.1682H132.228C133.04 43.1682 133.333 42.8131 133.463 41.6831C133.592 40.4886 133.625 38.9066 133.625 36.5175V34.3866H140.738V43.1682H142.492ZM139.471 35.4521H134.892V36.4852C134.892 38.842 134.859 40.5531 134.729 41.6508C134.664 42.3611 134.567 42.8131 134.372 43.136H139.471V35.4521ZM152.951 34.3866V44.2337H151.652V35.8072L146.357 44.2337H144.538V34.3866H145.805V43.0068L151.294 34.3866H152.951ZM164.742 44.2337H156.102V34.3866H157.401V43.1682H162.923V34.3866H164.189V43.1682H165.943V46.9779H164.742V44.2337ZM176.402 34.3866V44.2337H175.103V35.8072L169.809 44.2337H167.99V34.3866H169.256V43.0068L174.746 34.3866H176.402ZM179.553 34.3866H180.852V38.5514H186.504V34.3866H187.77V44.2337H186.504V39.6169H180.852V44.2337H179.553V34.3866ZM197.125 44.2337C197.06 43.8785 197.027 43.3619 197.027 42.6517C196.605 43.5557 195.208 44.4274 193.519 44.4274C191.798 44.4597 190.336 43.136 190.369 41.5217C190.369 40.5531 190.694 39.8106 191.376 39.3586C192.058 38.9066 192.837 38.616 193.779 38.5514L196.897 38.3254V37.938C196.897 36.2592 195.956 35.2583 194.429 35.2583H194.331C193.649 35.2583 193.097 35.4198 192.642 35.7426C192.188 36.0655 191.928 36.5175 191.863 37.1309H190.564C190.661 35.3875 192.285 34.1606 194.364 34.1606C196.865 34.1606 198.197 35.8395 198.197 37.9057V42.0383C198.197 43.0068 198.229 43.7494 198.294 44.2014H197.125V44.2337ZM196.93 39.3586L194.039 39.5523C192.61 39.6491 191.668 40.3594 191.668 41.4248C191.668 42.5225 192.545 43.3297 193.649 43.3297H193.844C195.176 43.3619 196.962 42.0705 196.93 40.65V39.3586ZM110.434 51.5947C111.376 51.5947 112.09 52.1758 112.155 53.0475H111.343C111.278 52.5633 110.921 52.2404 110.466 52.2404H110.401C109.622 52.2404 109.232 52.9184 109.232 53.7578C109.232 54.5972 109.622 55.2752 110.401 55.2752H110.466C110.953 55.2752 111.278 54.9524 111.343 54.4681H112.155C112.058 55.3721 111.376 55.9209 110.434 55.9209C109.167 55.9209 108.42 54.9847 108.42 53.7255C108.42 52.531 109.167 51.5947 110.434 51.5947ZM119.106 51.5947C120.178 51.5624 120.893 52.3695 120.893 53.435V53.887H117.937C117.969 54.7909 118.586 55.2752 119.106 55.2752H119.171C119.398 55.2752 119.593 55.2106 119.756 55.1138C119.918 54.9847 120.016 54.8232 120.08 54.6295H120.86C120.698 55.4689 119.983 55.9532 119.106 55.9532C118.034 55.9532 117.125 55.1784 117.125 53.7578C117.157 52.3695 118.099 51.5947 119.106 51.5947ZM120.113 53.2735C120.08 52.9184 119.983 52.6924 119.821 52.531C119.658 52.3695 119.431 52.2727 119.171 52.2727H119.106C118.846 52.2727 118.651 52.3695 118.424 52.531C118.229 52.6924 118.099 52.9507 118.034 53.3058H120.113V53.2735ZM129.143 52.3373H127.778V55.8886H126.966V52.3373H125.635V51.6916H129.143V52.3373ZM134.177 51.6916H134.989V53.1444H136.061C137.003 53.1444 137.588 53.5964 137.588 54.5004C137.588 55.3398 136.938 55.8886 136.061 55.8886H134.21V51.6916H134.177ZM135.801 55.2429C136.386 55.2429 136.743 55.0169 136.743 54.4681C136.743 53.9838 136.418 53.7578 135.801 53.7578H134.957V55.2429H135.801ZM150.32 53.887L149.638 54.5649V55.8886H148.858V51.6916H149.638V53.6932L151.554 51.6916H152.561L150.905 53.3381L152.659 55.8886H151.684L150.32 53.887ZM157.141 55.1784H157.336C157.758 55.1784 157.986 55.0169 158.018 54.6618C158.05 54.2421 158.083 53.661 158.083 52.9184V51.7238H161.201V55.9209H160.389V52.3695H158.83V52.9184C158.83 53.6932 158.798 54.3067 158.765 54.7909C158.7 55.5012 158.343 55.8886 157.466 55.8886H157.141V55.1784ZM170.523 51.6916V55.8886H169.744V52.531L167.827 55.8886H166.755V51.6916H167.535V55.0492L169.484 51.6916H170.523ZM176.077 51.6916H176.857V53.3704H178.903V51.6916H179.683V55.8886H178.903V54.0161H176.857V55.8886H176.077V51.6916ZM189.037 51.6916V55.8886H188.225V52.531L186.309 55.8886H185.237V51.6916H186.016V55.0492L187.965 51.6916H189.037ZM196.02 53.887L195.338 54.5649V55.8886H194.559V51.6916H195.338V53.6932L197.287 51.6916H198.262L196.605 53.3381L198.359 55.8886H197.417L196.02 53.887Z" fill="#01203F"/>
</svg>

