<svg width="75" height="54" viewBox="0 0 75 54" fill="none" xmlns="http://www.w3.org/2000/svg">
<g clip-path="url(#clip0_2005_1985)">
<path d="M3.64969 51.5473L1.50803 45.9604C1.33229 45.0793 0.804184 44.2649 0 43.6347V43.5902H2.65494C2.63223 43.9609 2.7049 44.3315 2.86842 44.6773L5.57787 51.7166L7.71953 45.9604C8.0602 45.0693 8.42358 44.0535 7.42883 43.6258V43.5902H9.99973C9.92706 44.1106 10.0202 44.6398 10.2677 45.1228L12.7932 51.672L14.8372 46.1386C15.1711 45.2475 15.7684 44.0446 14.358 43.6436V43.5902H17.1288L13.3088 53.9977C11.6372 53.0442 11.5078 53.1066 10.9104 51.5651L8.90732 46.3524L6.06843 53.9977C4.42187 52.9997 4.28106 53.1066 3.64969 51.5473ZM20.5127 43.3407V47.3415C20.8489 47.0314 21.2622 46.7855 21.7255 46.6198C22.1865 46.4558 22.6862 46.3774 23.1881 46.3881C25.7045 46.3881 26.3041 47.6445 26.3041 49.1147V51.868C26.3041 52.5631 26.186 53.1244 26.99 53.4987V53.5432H24.0239V53.4987C24.8165 53.1155 24.6984 52.6076 24.6984 51.868V49.5691C24.6984 48.3395 24.226 47.3861 22.6544 47.3861C21.0782 47.3861 20.5127 48.1256 20.5127 49.48V51.868C20.5127 52.5631 20.406 53.1244 21.2077 53.4987V53.5432H18.1985V53.4987C19.0024 53.1155 18.8957 52.6076 18.8957 51.868V45.2654C18.8957 44.5703 19.0024 44.009 18.1985 43.6347V43.5902H19.3885C19.5878 43.6179 19.7924 43.6098 19.9871 43.5666C20.1818 43.5234 20.3615 43.4462 20.5127 43.3407ZM28.6842 44.6773C28.6987 44.4331 28.8311 44.2025 29.0544 44.0321C29.1606 43.9499 29.2871 43.8857 29.4262 43.8434C29.5652 43.8011 29.7139 43.7816 29.8629 43.7862C30.0101 43.7857 30.1557 43.81 30.2898 43.8577C30.4238 43.9054 30.5432 43.9752 30.6396 44.0624C30.7425 44.1512 30.8215 44.2554 30.8719 44.3687C30.9222 44.482 30.9429 44.6021 30.9326 44.7218C30.9411 44.9636 30.8333 45.199 30.6306 45.3812C30.4307 45.5594 30.1536 45.6646 29.8629 45.6752C29.7038 45.677 29.5461 45.652 29.4003 45.6019C29.2546 45.5518 29.1242 45.4778 29.0181 45.3848C28.9056 45.29 28.8182 45.1787 28.7609 45.0572C28.7036 44.9358 28.6775 44.8066 28.6842 44.6773ZM30.7078 46.3435V51.868C30.7078 52.5631 30.601 53.1244 31.4027 53.4987V53.5432H28.4049V53.4987C29.2088 53.1155 29.1021 52.6076 29.1021 51.868V48.2504C29.1021 47.5554 29.2088 47.0118 28.4071 46.6287H29.4746C29.9135 46.6613 30.3515 46.5591 30.6964 46.3435H30.7078ZM37.026 52.7502C37.2781 52.7354 37.5246 52.684 37.7528 52.5987L36.7898 53.668C36.6043 53.719 36.4095 53.7461 36.213 53.7482C33.3968 53.7482 33.6534 51.3245 33.6534 50.7364V47.5821H32.4111V47.0385C34.1235 46.798 34.5528 45.7376 34.5528 44.3654H35.334V46.6019H37.0465C37.2811 46.6193 37.5174 46.5886 37.7323 46.5128H37.7869V47.894H37.7006C37.5282 47.7666 37.3218 47.671 37.0964 47.6142C36.8729 47.56 36.6361 47.549 36.406 47.5821H35.334V50.6117C35.334 51.1908 35.0774 52.7502 37.026 52.7502ZM42.9536 47.3861C42.3961 47.3641 41.849 47.5108 41.4252 47.7959C40.9937 48.0811 40.703 48.491 40.6076 48.9454H45.3088C45.2407 48.4803 44.9568 48.0543 44.5162 47.7639C44.3029 47.6199 44.054 47.512 43.7852 47.447C43.5163 47.382 43.2332 47.3613 42.9536 47.3861ZM44.1755 52.7324C45.2293 52.7466 46.2604 52.4704 47.1075 51.9482L46.1991 53.3739C45.404 53.6393 44.5465 53.7699 43.6827 53.7571C40.6848 53.7303 38.5431 52.1264 38.5431 50.0147C38.529 49.5227 38.6385 49.0334 38.8656 48.5747C39.0928 48.1185 39.4311 47.7068 39.8581 47.3647C40.2851 47.0243 40.7938 46.7588 41.3502 46.5895C41.9067 46.4202 42.5017 46.3489 43.0922 46.3792C43.6418 46.3578 44.1891 46.4326 44.7001 46.5966C45.2111 46.7623 45.6744 47.0154 46.0605 47.3397C46.4466 47.6641 46.7441 48.0526 46.9372 48.4803C47.1302 48.908 47.2143 49.3624 47.1825 49.8186H40.5349C40.5167 50.216 40.5985 50.6117 40.7779 50.9806C40.953 51.3463 41.222 51.6799 41.5683 51.9607C41.9112 52.2369 42.3223 52.449 42.772 52.5844C43.2194 52.7217 43.6986 52.7787 44.1732 52.7502L44.1755 52.7324ZM49.5717 46.3881H49.6262C49.6565 46.659 49.7345 46.9203 49.8601 47.1722L52.0018 51.77L53.662 48.2058C53.9186 47.6623 54.3683 46.9316 53.503 46.6198H55.8786V46.8514C55.9331 47.0914 56.0186 47.3231 56.1352 47.5464L58.0089 51.8146L59.7009 48.2504C59.9371 47.7336 60.4276 47.0386 59.4442 46.6643H61.8857L58.2428 53.8194C57.7767 53.67 57.367 53.4295 57.0527 53.1209C56.7265 52.8066 56.5028 52.4347 56.4009 52.0373L54.8384 48.5533L52.3424 53.8194C51.8589 53.6781 51.429 53.4426 51.0933 53.1351C50.7487 52.8189 50.5057 52.4425 50.3847 52.0373L48.393 47.7692C48.2491 47.3128 47.908 46.9098 47.4278 46.6287H47.9001C48.4725 46.6928 49.0584 46.6091 49.5717 46.3881ZM63.2552 44.6773C63.2692 44.4316 63.4024 44.1995 63.6276 44.0286C63.7354 43.9464 63.8637 43.8827 64.0044 43.8413C64.1451 43.7999 64.2952 43.7817 64.4452 43.788C64.592 43.7877 64.7372 43.8122 64.8708 43.8599C65.0045 43.9075 65.1235 43.9772 65.2197 44.0642C65.323 44.1528 65.4024 44.2569 65.4531 44.3703C65.5039 44.4836 65.5249 44.6038 65.5149 44.7236C65.5222 44.965 65.4136 45.1997 65.2106 45.3812C65.0107 45.5594 64.7359 45.6663 64.443 45.677C64.2837 45.6779 64.126 45.6525 63.98 45.6025C63.8341 45.5524 63.7032 45.4789 63.5958 45.3865C63.4822 45.2922 63.3935 45.1811 63.335 45.0596C63.2766 44.9382 63.2494 44.8088 63.2552 44.6791M65.3105 46.3471V51.8716C65.3105 52.5666 65.2038 53.128 65.9964 53.5022V53.5468H62.9872V53.5022C63.7798 53.1191 63.6731 52.6112 63.6731 51.8716V48.2539C63.6731 47.5589 63.7798 47.0154 62.9872 46.6322H64.0569C64.2795 46.6527 64.5051 46.638 64.7204 46.5891C64.9357 46.5401 65.1364 46.4578 65.3105 46.3471ZM69.7415 43.3407H69.7937V51.8591C69.7937 52.5542 69.6665 53.1155 70.4682 53.4898V53.5343H67.4477V53.4987C68.2312 53.1155 68.1244 52.6076 68.1244 51.868V45.2654C68.1244 44.5703 68.2312 44.009 67.4499 43.6347V43.5902H68.5196C68.734 43.6261 68.9561 43.6222 69.1682 43.5789C69.3803 43.5356 69.5766 43.454 69.7415 43.3407ZM74.2179 43.3407H74.2701V51.8591C74.2701 52.5542 74.1429 53.1155 74.9355 53.4898V53.5343H71.9467V53.4987C72.7303 53.1155 72.6213 52.6076 72.6213 51.868V45.2654C72.6213 44.5703 72.728 44.009 71.9467 43.6347V43.5902H73.0187C73.2296 43.6232 73.4473 43.6179 73.6552 43.5746C73.8631 43.5314 74.0555 43.4514 74.2179 43.3407ZM7.55828 6.0235L23.1382 38.8943H24.9891L8.57574 4.26813H8.54394L7.55828 6.0235ZM5.16225 10.3005L18.7163 38.8943H20.5695L6.17971 8.54517H6.14792L5.16225 10.3005ZM68.799 8.54517H68.7672L54.3774 38.8943H56.2306L69.7846 10.3005L68.799 8.54517ZM9.95885 1.75537L27.5691 38.8943H29.411L10.974 0H10.9423L9.95885 1.75537ZM66.4029 4.26813H66.3711L51.0933 36.4796L50.7186 37.2815L50.3439 36.4796L35.2795 4.72257H35.2478L34.337 6.63833L49.6353 38.8943H51.811L67.3886 6.0235L66.4029 4.26813ZM33.0743 9.38276H33.0425L32.134 11.2985L45.2157 38.8943H47.0689L33.0743 9.38276ZM35.2795 23.3723H35.2478L29.9356 34.5728L30.8463 36.4885H30.8781L36.188 25.288L35.2795 23.3723ZM33.0743 18.7121H33.0425L27.7326 29.9037L28.632 31.8194H28.6638L33.9737 20.6278L33.0743 18.7121ZM30.8554 14.043H30.8236L25.5137 25.2452L26.4222 27.161H26.4563L31.7661 15.9694L30.8554 14.043Z" fill="#01203F"/>
<path d="M63.97 0L51.0882 27.1592L50.7135 27.9523L50.3387 27.1592L37.491 0.0623733H37.4592L36.5508 1.97813L50.7044 31.8194H50.7362L64.9988 1.75537L64.0131 0H63.97Z" fill="#01203F"/>
</g>
<defs>
<clipPath id="clip0_2005_1985">
<rect width="74.9355" height="53.9977" fill="white"/>
</clipPath>
</defs>
</svg>

