<svg width="168" height="41" viewBox="0 0 168 41" fill="none" xmlns="http://www.w3.org/2000/svg">
<path fill-rule="evenodd" clip-rule="evenodd" d="M15.5892 13.2402C15.6022 13.2564 15.6188 13.2633 15.6244 13.2909L20.3036 22.097C20.4611 22.3988 20.9177 23.1927 20.9455 23.4676H10.3283L14.9464 14.5317C15.0677 14.2975 15.1427 14.1516 15.2604 13.9198C15.3919 13.661 15.5225 13.4752 15.5892 13.2402ZM0 33.8531V34.4082H9.56321V33.8531C7.16708 33.8531 5.42394 32.99 6.37887 31.1334C6.53447 30.8294 6.65118 30.6021 6.80308 30.2958L8.95746 26.1357C9.08991 25.8893 9.3085 25.5176 9.37241 25.2904H21.805L24.4003 30.2735C25.0496 31.5742 25.5173 32.7213 23.7186 33.377C23.2444 33.5505 22.2283 33.8093 21.6142 33.8523V34.4074H34.9073V33.8531C33.0993 33.8193 31.8138 33.0753 31.0487 31.8199C30.1855 30.4017 27.9931 26.2693 27.1197 24.5325L25.1654 20.8401C24.8532 20.2089 24.5077 19.6193 24.2095 19.0165L20.3379 11.6816C19.9924 11.0374 19.7164 10.4346 19.3506 9.80502L17.4055 6.10491H16.8312C16.6664 6.69306 12.7151 13.9735 12.1038 15.1882C10.6135 18.1535 8.88799 21.2578 7.33565 24.2377C6.75954 25.3433 4.105 30.533 3.44739 31.4797C2.71753 32.5301 1.81539 33.7279 0 33.8531ZM35.4816 7.05624C38.7326 7.05624 40.2636 7.39561 40.2636 10.3855V30.523C40.2636 33.2672 38.7511 33.8531 35.4816 33.8531V34.4082H50.4011V33.8531C49.1618 33.8531 47.4493 33.7509 46.749 33.3125C45.8802 32.7689 45.5236 31.9205 45.5236 30.682V10.2273C45.5236 7.3887 47.3557 7.05624 50.4011 7.05624V6.50111H35.4816V7.05624ZM63.4071 40.9093H63.8952C64.1073 40.9078 64.1721 40.8517 64.1721 40.6713V0H63.4071V40.9093ZM85.2334 12.6413L80.6598 17.6375H79.677V11.022H80.8218V16.019L85.3964 11.022H86.3792V17.6375H85.2343L85.2334 12.6413ZM95.7821 17.6375H94.7373V14.7167H90.6583V17.6375H89.5135V11.022H90.6583V13.8138H94.7373V11.022H95.8812V17.6375H95.7821ZM100.684 11.9257H97.9606V11.0228H104.552V11.9257H101.828V17.6375H100.685L100.684 11.9257ZM106.63 17.6375V11.022H111.22V11.925H107.774V13.8414H110.886V14.7444H107.774V16.7346H111.331V17.6375H106.63ZM115.166 15.1751V17.6375H114.021V11.022C114.732 11.022 115.445 11.0097 116.155 11.0036C117.808 11.0036 119.135 11.5833 119.135 13.0905C119.135 14.481 117.793 15.2043 116.233 15.2043C115.874 15.2051 115.524 15.1913 115.166 15.1751ZM116.244 11.9065L115.166 11.9227V14.263C115.511 14.2868 115.853 14.3021 116.199 14.3021C117.147 14.3021 117.933 13.9413 117.933 13.0813C117.933 12.2106 117.198 11.9065 116.244 11.9065ZM123.724 14.2745C123.419 14.2745 123.105 14.2944 122.802 14.3213V16.7292C123.097 16.7399 123.395 16.753 123.691 16.753C124.747 16.753 125.625 16.4466 125.625 15.4631C125.625 14.5394 124.682 14.2745 123.724 14.2745ZM122.802 11.022V13.4107C123.13 13.3938 123.462 13.3715 123.79 13.3715C125.448 13.3715 126.824 13.9151 126.824 15.4446C126.824 17.044 125.311 17.656 123.579 17.656C122.938 17.656 122.297 17.6375 121.656 17.6375V11.022H122.802ZM129.347 17.6375V11.022H133.938V11.925H130.492V13.8414H133.603V14.7444H130.492V16.7346H134.049V17.6375H129.347ZM137.883 15.1751V17.6375H136.739V11.022C137.45 11.022 138.162 11.0097 138.874 11.0036C140.526 11.0036 141.852 11.5833 141.852 13.0905C141.852 14.481 140.511 15.2043 138.951 15.2043C138.595 15.2031 138.239 15.1934 137.883 15.1751ZM138.962 11.9065L137.883 11.9227V14.263C138.227 14.2883 138.572 14.3014 138.917 14.3021C139.866 14.3021 140.651 13.9413 140.651 13.0813C140.651 12.2106 139.916 11.9065 138.962 11.9065ZM149.598 17.6375V14.7167H145.52V17.6375H144.375V11.022H145.52V13.8138H149.598V11.022H150.743V17.6375H149.598ZM152.826 17.6375L156.257 10.9852H157.201C158.351 13.1995 159.491 15.4193 160.631 17.6375H159.402L158.402 15.6842H154.989L154 17.6375H152.826ZM157.951 14.7812L156.7 12.3219L155.45 14.7812H157.951ZM166.359 17.6375V15.2419H165.056L163.043 17.6375H161.732L163.928 15.0569C163.032 14.7183 162.447 14.0434 162.447 13.2157C162.447 11.6823 163.888 10.9951 165.581 10.9951C166.221 10.9951 166.862 11.0228 167.503 11.0228V17.6383L166.359 17.6375ZM164.898 14.339H166.359V11.9219C166.041 11.9085 165.722 11.9006 165.403 11.8981C164.444 11.8981 163.647 12.3112 163.647 13.1696C163.648 13.7608 164.21 14.2415 164.898 14.339ZM85.1269 29.855L85.2214 29.7921L85.69 30.5238L85.6391 30.5676C85.0269 31.0858 83.9636 31.3116 83.1115 31.3116C80.669 31.3116 79.0657 29.9203 79.0657 27.9109C79.0657 25.9445 80.6338 24.511 83.0448 24.511C83.9802 24.511 84.8213 24.6915 85.5409 25.2028L85.0065 25.9299C84.3831 25.5476 83.8302 25.4132 83.0559 25.4132C81.3146 25.4132 80.2661 26.525 80.2661 27.9101C80.2661 29.369 81.4155 30.4071 83.2004 30.4071C83.8998 30.4112 84.5798 30.2164 85.1269 29.855ZM89.6348 25.5061H86.9127V24.6032H93.5036V25.5061H90.7805V31.2187H89.6357L89.6348 25.5061ZM101.904 24.6032L99.1508 29.6953C98.8794 30.1975 98.6025 30.5752 98.282 30.8286C97.6799 31.3062 96.7157 31.3599 96.06 30.9323L96.4694 30.1169C96.8454 30.3311 97.2298 30.4462 97.6133 30.1591C97.8439 29.9856 97.9634 29.7498 98.0912 29.521L94.503 24.6047H95.8034L98.6451 28.552L100.727 24.6047H101.904V24.6032ZM102.228 32.4165V30.3157H103.113C103.306 30.0969 103.639 29.5341 103.915 28.5789C104.109 27.9078 104.274 27.0441 104.339 25.9722L104.423 24.6032H109.197V30.315H110.252V32.4157H109.163V31.2179H103.317V32.4157H102.228V32.4165ZM105.522 25.5061L105.429 26.5803C105.369 27.3499 105.232 28.1139 105.018 28.8645C104.81 29.574 104.57 30.0623 104.393 30.3157H108.052V25.5061H105.522ZM118.111 26.2225L113.537 31.2194H112.554V24.6039H113.698V29.6009L118.273 24.6039H119.255V31.2194H118.111V26.2225ZM126.035 31.2194V28.8239H124.732L122.719 31.2194H121.408L123.604 28.638C122.708 28.2994 122.123 27.6245 122.123 26.7968C122.123 25.2642 123.565 24.5763 125.257 24.5763C125.898 24.5763 126.538 24.6039 127.18 24.6039V31.2194H126.035ZM124.575 27.9209H126.035V25.503C125.773 25.4938 125.377 25.4792 125.08 25.4792C124.121 25.4792 123.324 25.8931 123.324 26.7507C123.323 27.342 123.886 27.8234 124.575 27.9209Z" fill="#01203F"/>
</svg>

