<svg width="1880" height="710" viewBox="0 0 1880 710" fill="none" xmlns="http://www.w3.org/2000/svg">
<path d="M0 80C0 35.8172 35.8172 0 80 0H1800C1844.18 0 1880 35.8172 1880 80V496.5C1880 540.683 1844.18 576.5 1800 576.5H1665.25C1628.39 576.5 1598.5 606.385 1598.5 643.25C1598.5 680.115 1568.61 710 1531.75 710H80C35.8172 710 0 674.183 0 630V80Z" fill="white"/>
<path d="M80 0.5H1800C1843.91 0.5 1879.5 36.0934 1879.5 80V496.5C1879.5 540.407 1843.91 576 1800 576H1665.25C1628.11 576 1598 606.109 1598 643.25C1598 679.839 1568.34 709.5 1531.75 709.5H80C36.0934 709.5 0.5 673.907 0.5 630V80C0.500012 36.0934 36.0934 0.5 80 0.5Z" stroke="black" stroke-opacity="0.3"/>
</svg>
