<svg width="116" height="36" viewBox="0 0 116 36" fill="none" xmlns="http://www.w3.org/2000/svg">
<g clip-path="url(#clip0_2013_991)">
<path d="M23.3599 4.74471V0.0770423C23.3599 0.00467533 23.2795 -0.0289236 23.2346 0.0253516L15.3132 9.66567C14.7457 10.3557 14.4217 11.2448 14.3957 12.1727L13.9109 30.7529C13.9109 30.8356 14.0079 30.864 14.0457 30.7943L15.0341 28.9205C15.15 28.7008 15.2257 28.4578 15.2588 28.2071L16.6704 16.8894C16.8762 15.2431 17.5548 13.7105 18.6094 12.5138L21.8584 8.82311C22.8231 7.72727 23.3599 6.26442 23.3599 4.7473" fill="white"/>
<path d="M0 4.7451V0.0774316C0 0.00764908 0.0803963 -0.0285344 0.125324 0.0257408L8.04672 9.66606C8.61422 10.3561 8.93817 11.2452 8.96418 12.1731L9.45129 30.7533C9.45129 30.836 9.35434 30.8644 9.31651 30.7946L8.32811 28.9209C8.21224 28.7012 8.13658 28.4582 8.10347 28.2075L6.69181 16.8898C6.48609 15.2435 5.80745 13.7109 4.75284 12.5142L1.50388 8.8235C0.539128 7.72507 0 6.26481 0 4.7451Z" fill="white"/>
<path d="M12.6979 10.4905L11.7733 9.61689C11.7189 9.5652 11.6385 9.5652 11.5842 9.61689L10.6596 10.4905C10.4964 10.6455 10.4066 10.8704 10.4113 11.1056L11.0308 34.7593C11.0308 34.8239 11.0498 34.8885 11.0781 34.9453L11.6149 35.9585C11.6433 36.0102 11.7118 36.0102 11.7402 35.9585L12.277 34.9453C12.3077 34.8885 12.3219 34.8265 12.3243 34.7593L12.9438 11.1056C12.9485 10.8704 12.8587 10.6455 12.6955 10.4905" fill="white"/>
<path fill-rule="evenodd" clip-rule="evenodd" d="M72.6002 18.146L68.2257 14.3286C67.8616 14.0107 67.4076 13.8375 66.9417 13.8375H64.2887C64.2296 13.8375 64.2035 13.9177 64.2508 13.9564L71.652 20.516V24.1214C71.652 24.1576 71.6804 24.1886 71.7135 24.1886H74.0072C74.0403 24.1886 74.0686 24.1576 74.0686 24.1214V20.516L81.4769 13.9513C81.5218 13.9099 81.4911 13.835 81.4344 13.835H78.7789C78.3131 13.835 77.8591 14.0081 77.4949 14.326L73.1204 18.1434C72.9691 18.2752 72.7563 18.2752 72.6073 18.1434L72.6002 18.146Z" fill="white"/>
<path fill-rule="evenodd" clip-rule="evenodd" d="M89.4527 14.424C88.7953 13.5969 87.6225 13.5969 86.9651 14.424L79.292 24.0798C79.2565 24.1238 79.2849 24.191 79.3393 24.191H81.8434C82.1674 24.191 82.4771 24.0488 82.7041 23.7929L87.7407 17.3626C87.9866 17.0473 88.4312 17.0473 88.6795 17.3626L93.735 23.8136C93.9596 24.054 94.2623 24.1884 94.5744 24.1884H97.0785C97.1329 24.1884 97.1589 24.1186 97.1258 24.0772L89.4527 14.4214V14.424Z" fill="white"/>
<path fill-rule="evenodd" clip-rule="evenodd" d="M34.6981 23.6044C35.3555 24.4314 36.5283 24.4314 37.1856 23.6044L44.8588 13.9485C44.8942 13.9046 44.8659 13.8374 44.8115 13.8374H42.3074C41.9834 13.8374 41.6737 13.9796 41.4467 14.2354L36.4101 20.6657C36.1641 20.9811 35.7196 20.9811 35.4713 20.6657L30.4158 14.2147C30.1912 13.9744 29.8885 13.84 29.5764 13.84H27.0723C27.0179 13.84 26.9919 13.9098 27.025 13.9511L34.6981 23.6069V23.6044Z" fill="white"/>
<path fill-rule="evenodd" clip-rule="evenodd" d="M115.92 13.8374H113.51C113.477 13.8374 113.449 13.8684 113.449 13.9046L113.468 17.3472C113.468 17.4764 113.371 17.5824 113.252 17.5824H101.671C101.552 17.5824 101.458 17.4764 101.458 17.3498L101.439 13.9072C101.439 13.871 101.41 13.84 101.377 13.84H98.9536C98.9205 13.84 98.8922 13.871 98.8922 13.9072L98.9111 24.1239C98.9111 24.16 98.9394 24.1911 98.9725 24.1911H101.396C101.429 24.1911 101.458 24.16 101.458 24.1239V20.459C101.458 20.3298 101.555 20.2238 101.673 20.2238H113.255C113.373 20.2238 113.47 20.3298 113.47 20.459V24.1239C113.47 24.16 113.498 24.1911 113.531 24.1911H115.941C115.974 24.1911 116.002 24.16 116.002 24.1239L115.983 13.9072C115.983 13.871 115.955 13.84 115.922 13.84L115.92 13.8374Z" fill="white"/>
<path fill-rule="evenodd" clip-rule="evenodd" d="M45.8022 16.9645V21.0662C45.8022 22.7927 47.0815 24.1909 48.661 24.1909H60.3918C61.9714 24.1909 63.2506 22.7927 63.2506 21.0662V16.9645C63.2506 15.2381 61.9714 13.8398 60.3918 13.8398H48.661C47.0815 13.8398 45.8022 15.2381 45.8022 16.9645ZM59.7652 21.777H49.29C48.7012 21.777 48.226 21.2549 48.226 20.6139V17.4194C48.226 16.7759 48.7036 16.2564 49.29 16.2564H59.7652C60.354 16.2564 60.8293 16.7785 60.8293 17.4194V20.6139C60.8293 21.2575 60.3516 21.777 59.7652 21.777Z" fill="white"/>
</g>
<defs>
<clipPath id="clip0_2013_991">
<rect width="116" height="36" fill="white"/>
</clipPath>
</defs>
</svg>
